<svg xmlns="http://www.w3.org/2000/svg" xmlns:svg="http://www.w3.org/2000/svg" xmlns:xlink="http://www.w3.org/1999/xlink" id="svg4917" width="160" height="160" version="1.1"><defs id="defs4919"><linearGradient id="linearGradient3761"><stop style="stop-color:#78909c;stop-opacity:1" id="stop3763" offset="0"/><stop style="stop-color:#bdbdbd;stop-opacity:1" id="stop3765" offset="1"/></linearGradient><linearGradient id="linearGradient3771"><stop style="stop-color:#42a5f5;stop-opacity:1" id="stop3773" offset="0"/><stop style="stop-color:#29b6f6;stop-opacity:1" id="stop3775" offset="1"/></linearGradient><linearGradient id="linearGradient3763-4" x1="80" x2="80" y1="1052.362" y2="892.362" gradientUnits="userSpaceOnUse" xlink:href="#linearGradient3771-4"/><linearGradient id="linearGradient3771-4"><stop style="stop-color:#42a5f5;stop-opacity:1" id="stop3773-3" offset="0"/><stop style="stop-color:#29b6f6;stop-opacity:1" id="stop3775-7" offset="1"/></linearGradient><linearGradient id="linearGradient3780" x1="80" x2="80" y1="1052.362" y2="892.362" gradientTransform="translate(77.790813,-49.540059)" gradientUnits="userSpaceOnUse" xlink:href="#linearGradient3771-4"/><linearGradient id="linearGradient3767" x1="0" x2="160" y1="972.362" y2="972.362" gradientTransform="translate(-1052.3622,-892.36218)" gradientUnits="userSpaceOnUse" xlink:href="#linearGradient3761"/></defs><metadata id="metadata4922"/><g id="layer1" transform="translate(0,-892.36218)"><path style="fill:url(#linearGradient3767);fill-opacity:1;stroke:none" id="rect2987" d="m -1052.3622,0 160.00002,0 0,160 -160.00002,0 z" transform="matrix(0,-1,1,0,0,0)"/><path style="opacity:1;fill:#fff;fill-opacity:1;stroke:none" id="rect3902-6-28-1-5-7" d="m 40,932.36214 0,20 10,10.00003 0,20 -10,10 0,20.00003 20,0 10,-10 0,-20.00003 20,0 0,20.00003 10,10 20,0 0,-20.00003 -10,-10 0,-20 10,-10.00003 0,-20 -20,0 -10,10 0,20.00003 -20,0 0,-20.00003 -10,-10 z"/></g></svg>