<?xml version="1.0" encoding="UTF-8" standalone="no"?>
<!-- Created with Inkscape (http://www.inkscape.org/) -->

<svg
   xmlns:dc="http://purl.org/dc/elements/1.1/"
   xmlns:cc="http://creativecommons.org/ns#"
   xmlns:rdf="http://www.w3.org/1999/02/22-rdf-syntax-ns#"
   xmlns:svg="http://www.w3.org/2000/svg"
   xmlns="http://www.w3.org/2000/svg"
   xmlns:sodipodi="http://sodipodi.sourceforge.net/DTD/sodipodi-0.dtd"
   xmlns:inkscape="http://www.inkscape.org/namespaces/inkscape"
   width="53.98mm"
   height="85.599998mm"
   id="svg2"
   version="1.1"
   inkscape:version="0.48.4 r9939"
   viewBox="0 0 191.26772 303.30706"
   sodipodi:docname="mhaidarhanif_card-personal_back-name-portrait.svg"
   inkscape:export-filename="/home/mhaidarh/all/repo/mhaidarh/identity/card/personal/mhaidarhanif_card-personal_name.png"
   inkscape:export-xdpi="300"
   inkscape:export-ydpi="300"
   enable-background="new">
  <defs
     id="defs4" />
  <sodipodi:namedview
     id="base"
     pagecolor="#ffffff"
     bordercolor="#666666"
     borderopacity="1.0"
     inkscape:pageopacity="0.0"
     inkscape:pageshadow="2"
     inkscape:zoom="1.5833777"
     inkscape:cx="168.50709"
     inkscape:cy="155.79464"
     inkscape:document-units="px"
     inkscape:current-layer="layer2"
     showgrid="false"
     units="mm"
     inkscape:window-width="1366"
     inkscape:window-height="744"
     inkscape:window-x="0"
     inkscape:window-y="24"
     inkscape:window-maximized="1"
     inkscape:showpageshadow="false"
     inkscape:object-paths="true"
     inkscape:snap-page="true"
     inkscape:snap-bbox="true"
     inkscape:snap-intersection-paths="true"
     inkscape:object-nodes="true"
     inkscape:snap-smooth-nodes="true"
     inkscape:snap-midpoints="false"
     inkscape:snap-object-midpoints="false"
     inkscape:snap-center="false"
     inkscape:snap-global="true" />
  <metadata
     id="metadata7">
    <rdf:RDF>
      <cc:Work
         rdf:about="">
        <dc:format>image/svg+xml</dc:format>
        <dc:type
           rdf:resource="http://purl.org/dc/dcmitype/StillImage" />
        <dc:title />
      </cc:Work>
    </rdf:RDF>
  </metadata>
  <g
     inkscape:groupmode="layer"
     id="layer2"
     inkscape:label="bg"
     style="display:inline"
     transform="translate(0,112.03937)">
    <rect
       style="opacity:1;fill:#ffffff;fill-opacity:1;stroke:none;stroke-width:0.71281409;stroke-linecap:square;stroke-linejoin:miter;stroke-miterlimit:1;stroke-dasharray:none;stroke-opacity:1"
       id="rect4175"
       width="191.26772"
       height="303.30707"
       x="0"
       y="-112.03938" />
  </g>
  <g
     inkscape:label="content"
     inkscape:groupmode="layer"
     id="layer1"
     transform="translate(0,-749.05511)"
     style="">
    <path
       style="fill:#4dd0e1;fill-opacity:1;stroke:none"
       d="m 55.633858,820.70864 0,20 10,10 0,20 -10,10 0,20 20,0 10,-10 0,-20 20.000002,0 0,20 10,10 20,0 0,-20 -10,-10 0,-20 10,-10 0,-20 -20,0 -10,10 0,20 -20.000002,0 0,-20 -10,-10 z"
       id="rect3902-6-28-1-5-3"
       inkscape:connector-curvature="0"
       sodipodi:nodetypes="ccccccccccccccccccccccccc" />
    <g
       id="g3041"
       transform="matrix(0.94250828,0,0,0.94250828,215.86749,103.51232)"
       style="fill:#37474f;fill-opacity:1">
      <path
         d="m -203.70172,874.62275 0,13.64141 -6.366,0 0,-31.82996 6.366,0 0,12.73198 12.50462,0 0,-12.73198 6.366,0 0,31.82996 -6.366,0 0,-13.64141 -12.50462,0"
         style="font-size:45.47137833000000029px;font-style:normal;font-variant:normal;font-weight:bold;font-stretch:normal;line-height:125%;letter-spacing:0px;word-spacing:0px;fill:#37474f;fill-opacity:1;stroke:none;font-family:Quantico;-inkscape-font-specification:Quantico Bold"
         id="path3008"
         inkscape:connector-curvature="0" />
      <path
         d="m -162.38601,856.4342 11.36785,31.82996 -6.27505,0 -2.40998,-6.86618 -11.91351,0 -2.40998,6.86618 -6.27505,0 11.36785,-31.82996 6.54787,0 m -3.31941,8.00296 -4.00148,11.50426 8.04844,0 -3.95601,-11.50426 -0.0909,0"
         style="font-size:45.47137833000000029px;font-style:normal;font-variant:normal;font-weight:bold;font-stretch:normal;line-height:125%;letter-spacing:0px;word-spacing:0px;fill:#37474f;fill-opacity:1;stroke:none;font-family:Quantico;-inkscape-font-specification:Quantico Bold"
         id="path3010"
         inkscape:connector-curvature="0" />
      <path
         d="m -146.47884,888.26416 0,-31.82996 6.366,0 0,31.82996 -6.366,0"
         style="font-size:45.47137833000000029px;font-style:normal;font-variant:normal;font-weight:bold;font-stretch:normal;line-height:125%;letter-spacing:0px;word-spacing:0px;fill:#37474f;fill-opacity:1;stroke:none;font-family:Quantico;-inkscape-font-specification:Quantico Bold"
         id="path3012"
         inkscape:connector-curvature="0" />
      <path
         d="m -107.57594,885.21758 -5.27468,3.04658 -19.50722,0 0,-31.82996 19.50722,0 5.27468,3.04658 0,25.7368 m -18.41591,-23.32682 0,20.91683 12.04992,0 0,-20.91683 -12.04992,0"
         style="font-size:45.47137833000000029px;font-style:normal;font-variant:normal;font-weight:bold;font-stretch:normal;line-height:125%;letter-spacing:0px;word-spacing:0px;fill:#37474f;fill-opacity:1;stroke:none;font-family:Quantico;-inkscape-font-specification:Quantico Bold"
         id="path3014"
         inkscape:connector-curvature="0" />
      <path
         d="m -85.120186,856.4342 11.367845,31.82996 -6.27505,0 -2.409983,-6.86618 -11.913501,0 -2.409984,6.86618 -6.275051,0 11.367846,-31.82996 6.547878,0 m -3.31941,8.00296 -4.001482,11.50426 8.048434,0 -3.95601,-11.50426 -0.09094,0"
         style="font-size:45.47137833000000029px;font-style:normal;font-variant:normal;font-weight:bold;font-stretch:normal;line-height:125%;letter-spacing:0px;word-spacing:0px;fill:#37474f;fill-opacity:1;stroke:none;font-family:Quantico;-inkscape-font-specification:Quantico Bold"
         id="path3016"
         inkscape:connector-curvature="0" />
      <path
         d="m -45.06771,888.26416 -7.002592,0 -6.820707,-12.00444 -3.95601,0 0,12.00444 -6.365993,0 0,-31.82996 17.233652,0 5.27468,3.04658 0,13.73235 -5.27468,3.04659 6.91165,12.00444 m -17.779309,-26.3734 0,8.91239 9.776346,0 0,-8.91239 -9.776346,0"
         style="font-size:45.47137833000000029px;font-style:normal;font-variant:normal;font-weight:bold;font-stretch:normal;line-height:125%;letter-spacing:0px;word-spacing:0px;fill:#37474f;fill-opacity:1;stroke:none;font-family:Quantico;-inkscape-font-specification:Quantico Bold"
         id="path3018"
         inkscape:connector-curvature="0" />
    </g>
    <g
       id="g3049"
       transform="matrix(0.94250828,0,0,0.94250828,231.86459,89.940879)"
       style="fill:#37474f;fill-opacity:1">
      <path
         d="m -203.70172,931.46197 0,13.64141 -6.366,0 0,-31.82996 6.366,0 0,12.73198 12.50462,0 0,-12.73198 6.366,0 0,31.82996 -6.366,0 0,-13.64141 -12.50462,0"
         style="font-size:45.47137833000000029px;font-style:normal;font-variant:normal;font-weight:bold;font-stretch:normal;line-height:125%;letter-spacing:0px;word-spacing:0px;fill:#37474f;fill-opacity:1;stroke:none;font-family:Quantico;-inkscape-font-specification:Quantico Bold"
         id="path3020"
         inkscape:connector-curvature="0" />
      <path
         d="m -162.38601,913.27342 11.36785,31.82996 -6.27505,0 -2.40998,-6.86618 -11.91351,0 -2.40998,6.86618 -6.27505,0 11.36785,-31.82996 6.54787,0 m -3.31941,8.00296 -4.00148,11.50426 8.04844,0 -3.95601,-11.50426 -0.0909,0"
         style="font-size:45.47137833000000029px;font-style:normal;font-variant:normal;font-weight:bold;font-stretch:normal;line-height:125%;letter-spacing:0px;word-spacing:0px;fill:#37474f;fill-opacity:1;stroke:none;font-family:Quantico;-inkscape-font-specification:Quantico Bold"
         id="path3022"
         inkscape:connector-curvature="0" />
      <path
         d="m -140.11284,924.50485 0,20.59853 -6.366,0 0,-31.82996 5.95676,0 13.73235,20.59853 0.0909,0 0,-20.59853 6.366,0 0,31.82996 -5.95675,0 -13.73236,-20.59853 -0.0909,0"
         style="font-size:45.47137833000000029px;font-style:normal;font-variant:normal;font-weight:bold;font-stretch:normal;line-height:125%;letter-spacing:0px;word-spacing:0px;fill:#37474f;fill-opacity:1;stroke:none;font-family:Quantico;-inkscape-font-specification:Quantico Bold"
         id="path3024"
         inkscape:connector-curvature="0" />
      <path
         d="m -112.64174,945.10338 0,-31.82996 6.36599,0 0,31.82996 -6.36599,0"
         style="font-size:45.47137833000000029px;font-style:normal;font-variant:normal;font-weight:bold;font-stretch:normal;line-height:125%;letter-spacing:0px;word-spacing:0px;fill:#37474f;fill-opacity:1;stroke:none;font-family:Quantico;-inkscape-font-specification:Quantico Bold"
         id="path3026"
         inkscape:connector-curvature="0" />
      <path
         d="m -92.154751,931.46197 0,13.64141 -6.365993,0 0,-31.82996 19.507222,0 0,5.45656 -13.141229,0 0,7.27542 10.412946,0 0,5.45657 -10.412946,0"
         style="font-size:45.47137833000000029px;font-style:normal;font-variant:normal;font-weight:bold;font-stretch:normal;line-height:125%;letter-spacing:0px;word-spacing:0px;fill:#37474f;fill-opacity:1;stroke:none;font-family:Quantico;-inkscape-font-specification:Quantico Bold"
         id="path3028"
         inkscape:connector-curvature="0" />
    </g>
  </g>
</svg>
