<svg xmlns="http://www.w3.org/2000/svg" xmlns:svg="http://www.w3.org/2000/svg" id="svg2" width="53.98mm" height="323.528" enable-background="new" version="1.1" viewBox="0 0 191.268 303.307"><metadata id="metadata7"/><g id="layer2" transform="translate(0,112.03937)" style="display:inline"><rect style="opacity:1;fill:#fff;fill-opacity:1;stroke:none;stroke-width:.71281409;stroke-linecap:square;stroke-linejoin:miter;stroke-miterlimit:1;stroke-dasharray:none;stroke-opacity:1" id="rect4175" width="191.268" height="303.307" x="0" y="-112.039"/></g><g id="layer1" transform="translate(0,-749.05511)"><path style="fill:#4dd0e1;fill-opacity:1;stroke:none" id="rect3902-6-28-1-5-3" d="m 55.633858,820.70864 0,20 10,10 0,20 -10,10 0,20 20,0 10,-10 0,-20 20.000002,0 0,20 10,10 20,0 0,-20 -10,-10 0,-20 10,-10 0,-20 -20,0 -10,10 0,20 -20.000002,0 0,-20 -10,-10 z"/><g id="g3041" transform="matrix(0.94250828,0,0,0.94250828,215.86749,103.51232)" style="fill:#37474f;fill-opacity:1"><path style="font-size:45.47137833000000029px;font-style:normal;font-variant:normal;font-weight:700;font-stretch:normal;line-height:125%;letter-spacing:0;word-spacing:0;fill:#37474f;fill-opacity:1;stroke:none;font-family:Quantico;-inkscape-font-specification:Quantico Bold" id="path3008" d="m -203.70172,874.62275 0,13.64141 -6.366,0 0,-31.82996 6.366,0 0,12.73198 12.50462,0 0,-12.73198 6.366,0 0,31.82996 -6.366,0 0,-13.64141 -12.50462,0"/><path style="font-size:45.47137833000000029px;font-style:normal;font-variant:normal;font-weight:700;font-stretch:normal;line-height:125%;letter-spacing:0;word-spacing:0;fill:#37474f;fill-opacity:1;stroke:none;font-family:Quantico;-inkscape-font-specification:Quantico Bold" id="path3010" d="m -162.38601,856.4342 11.36785,31.82996 -6.27505,0 -2.40998,-6.86618 -11.91351,0 -2.40998,6.86618 -6.27505,0 11.36785,-31.82996 6.54787,0 m -3.31941,8.00296 -4.00148,11.50426 8.04844,0 -3.95601,-11.50426 -0.0909,0"/><path style="font-size:45.47137833000000029px;font-style:normal;font-variant:normal;font-weight:700;font-stretch:normal;line-height:125%;letter-spacing:0;word-spacing:0;fill:#37474f;fill-opacity:1;stroke:none;font-family:Quantico;-inkscape-font-specification:Quantico Bold" id="path3012" d="m -146.47884,888.26416 0,-31.82996 6.366,0 0,31.82996 -6.366,0"/><path style="font-size:45.47137833000000029px;font-style:normal;font-variant:normal;font-weight:700;font-stretch:normal;line-height:125%;letter-spacing:0;word-spacing:0;fill:#37474f;fill-opacity:1;stroke:none;font-family:Quantico;-inkscape-font-specification:Quantico Bold" id="path3014" d="m -107.57594,885.21758 -5.27468,3.04658 -19.50722,0 0,-31.82996 19.50722,0 5.27468,3.04658 0,25.7368 m -18.41591,-23.32682 0,20.91683 12.04992,0 0,-20.91683 -12.04992,0"/><path style="font-size:45.47137833000000029px;font-style:normal;font-variant:normal;font-weight:700;font-stretch:normal;line-height:125%;letter-spacing:0;word-spacing:0;fill:#37474f;fill-opacity:1;stroke:none;font-family:Quantico;-inkscape-font-specification:Quantico Bold" id="path3016" d="m -85.120186,856.4342 11.367845,31.82996 -6.27505,0 -2.409983,-6.86618 -11.913501,0 -2.409984,6.86618 -6.275051,0 11.367846,-31.82996 6.547878,0 m -3.31941,8.00296 -4.001482,11.50426 8.048434,0 -3.95601,-11.50426 -0.09094,0"/><path style="font-size:45.47137833000000029px;font-style:normal;font-variant:normal;font-weight:700;font-stretch:normal;line-height:125%;letter-spacing:0;word-spacing:0;fill:#37474f;fill-opacity:1;stroke:none;font-family:Quantico;-inkscape-font-specification:Quantico Bold" id="path3018" d="m -45.06771,888.26416 -7.002592,0 -6.820707,-12.00444 -3.95601,0 0,12.00444 -6.365993,0 0,-31.82996 17.233652,0 5.27468,3.04658 0,13.73235 -5.27468,3.04659 6.91165,12.00444 m -17.779309,-26.3734 0,8.91239 9.776346,0 0,-8.91239 -9.776346,0"/></g><g id="g3049" transform="matrix(0.94250828,0,0,0.94250828,231.86459,89.940879)" style="fill:#37474f;fill-opacity:1"><path style="font-size:45.47137833000000029px;font-style:normal;font-variant:normal;font-weight:700;font-stretch:normal;line-height:125%;letter-spacing:0;word-spacing:0;fill:#37474f;fill-opacity:1;stroke:none;font-family:Quantico;-inkscape-font-specification:Quantico Bold" id="path3020" d="m -203.70172,931.46197 0,13.64141 -6.366,0 0,-31.82996 6.366,0 0,12.73198 12.50462,0 0,-12.73198 6.366,0 0,31.82996 -6.366,0 0,-13.64141 -12.50462,0"/><path style="font-size:45.47137833000000029px;font-style:normal;font-variant:normal;font-weight:700;font-stretch:normal;line-height:125%;letter-spacing:0;word-spacing:0;fill:#37474f;fill-opacity:1;stroke:none;font-family:Quantico;-inkscape-font-specification:Quantico Bold" id="path3022" d="m -162.38601,913.27342 11.36785,31.82996 -6.27505,0 -2.40998,-6.86618 -11.91351,0 -2.40998,6.86618 -6.27505,0 11.36785,-31.82996 6.54787,0 m -3.31941,8.00296 -4.00148,11.50426 8.04844,0 -3.95601,-11.50426 -0.0909,0"/><path style="font-size:45.47137833000000029px;font-style:normal;font-variant:normal;font-weight:700;font-stretch:normal;line-height:125%;letter-spacing:0;word-spacing:0;fill:#37474f;fill-opacity:1;stroke:none;font-family:Quantico;-inkscape-font-specification:Quantico Bold" id="path3024" d="m -140.11284,924.50485 0,20.59853 -6.366,0 0,-31.82996 5.95676,0 13.73235,20.59853 0.0909,0 0,-20.59853 6.366,0 0,31.82996 -5.95675,0 -13.73236,-20.59853 -0.0909,0"/><path style="font-size:45.47137833000000029px;font-style:normal;font-variant:normal;font-weight:700;font-stretch:normal;line-height:125%;letter-spacing:0;word-spacing:0;fill:#37474f;fill-opacity:1;stroke:none;font-family:Quantico;-inkscape-font-specification:Quantico Bold" id="path3026" d="m -112.64174,945.10338 0,-31.82996 6.36599,0 0,31.82996 -6.36599,0"/><path style="font-size:45.47137833000000029px;font-style:normal;font-variant:normal;font-weight:700;font-stretch:normal;line-height:125%;letter-spacing:0;word-spacing:0;fill:#37474f;fill-opacity:1;stroke:none;font-family:Quantico;-inkscape-font-specification:Quantico Bold" id="path3028" d="m -92.154751,931.46197 0,13.64141 -6.365993,0 0,-31.82996 19.507222,0 0,5.45656 -13.141229,0 0,7.27542 10.412946,0 0,5.45657 -10.412946,0"/></g></g></svg>