<?xml version="1.0" encoding="UTF-8" standalone="no"?>
<!-- Created with Inkscape (http://www.inkscape.org/) -->

<svg
   xmlns:dc="http://purl.org/dc/elements/1.1/"
   xmlns:cc="http://creativecommons.org/ns#"
   xmlns:rdf="http://www.w3.org/1999/02/22-rdf-syntax-ns#"
   xmlns:svg="http://www.w3.org/2000/svg"
   xmlns="http://www.w3.org/2000/svg"
   xmlns:sodipodi="http://sodipodi.sourceforge.net/DTD/sodipodi-0.dtd"
   xmlns:inkscape="http://www.inkscape.org/namespaces/inkscape"
   width="85mm"
   height="55mm"
   id="svg2"
   version="1.1"
   inkscape:version="0.48.4 r9939"
   viewBox="0 0 301.18109 194.88189"
   sodipodi:docname="mhaidarhanif_card-personal_back-all.svg"
   inkscape:export-filename="/home/mhaidarh/all/repo/mhaidarh/identity/card/personal/mhaidarhanif_card-personal_json.png"
   inkscape:export-xdpi="300"
   inkscape:export-ydpi="300">
  <defs
     id="defs4">
    <filter
       id="filter-1"
       filterUnits="objectBoundingBox"
       height="2"
       width="2"
       y="-0.5"
       x="-0.5">
      <feOffset
         id="feOffset11"
         result="shadowOffsetOuter1"
         in="SourceAlpha"
         dy="2"
         dx="2" />
      <feGaussianBlur
         id="feGaussianBlur13"
         result="shadowBlurOuter1"
         in="shadowOffsetOuter1"
         stdDeviation="2" />
      <feColorMatrix
         id="feColorMatrix15"
         result="shadowMatrixOuter1"
         type="matrix"
         in="shadowBlurOuter1"
         values="0 0 0 0 0   0 0 0 0 0   0 0 0 0 0  0 0 0 0.35 0" />
      <feMerge
         id="feMerge17">
        <feMergeNode
           id="feMergeNode19"
           in="shadowMatrixOuter1" />
        <feMergeNode
           id="feMergeNode21"
           in="SourceGraphic" />
      </feMerge>
    </filter>
    <mask
       id="mask4233"
       maskUnits="userSpaceOnUse">
      <rect
         y="650"
         x="310"
         height="150"
         width="650"
         id="rect4235"
         style="fill:#ff2a2a;fill-opacity:1" />
    </mask>
    <filter
       color-interpolation-filters="sRGB"
       x="-0.5"
       y="-0.5"
       width="2"
       height="2"
       filterUnits="objectBoundingBox"
       id="filter-1-6">
      <feOffset
         dx="2"
         dy="2"
         in="SourceAlpha"
         result="shadowOffsetOuter1"
         id="feOffset11-71" />
      <feGaussianBlur
         stdDeviation="2"
         in="shadowOffsetOuter1"
         result="shadowBlurOuter1"
         id="feGaussianBlur13-6" />
      <feColorMatrix
         values="0 0 0 0 0   0 0 0 0 0   0 0 0 0 0  0 0 0 0.35 0"
         in="shadowBlurOuter1"
         type="matrix"
         result="shadowMatrixOuter1"
         id="feColorMatrix15-7" />
      <feMerge
         id="feMerge17-8">
        <feMergeNode
           in="shadowMatrixOuter1"
           id="feMergeNode19-63" />
        <feMergeNode
           in="SourceGraphic"
           id="feMergeNode21-5" />
      </feMerge>
    </filter>
    <filter
       color-interpolation-filters="sRGB"
       x="-0.5"
       y="-0.5"
       width="2"
       height="2"
       filterUnits="objectBoundingBox"
       id="filter-1-36">
      <feOffset
         dx="2"
         dy="2"
         in="SourceAlpha"
         result="shadowOffsetOuter1"
         id="feOffset11-7" />
      <feGaussianBlur
         stdDeviation="2"
         in="shadowOffsetOuter1"
         result="shadowBlurOuter1"
         id="feGaussianBlur13-4" />
      <feColorMatrix
         values="0 0 0 0 0   0 0 0 0 0   0 0 0 0 0  0 0 0 0.35 0"
         in="shadowBlurOuter1"
         type="matrix"
         result="shadowMatrixOuter1"
         id="feColorMatrix15-65" />
      <feMerge
         id="feMerge17-6">
        <feMergeNode
           in="shadowMatrixOuter1"
           id="feMergeNode19-7" />
        <feMergeNode
           in="SourceGraphic"
           id="feMergeNode21-8" />
      </feMerge>
    </filter>
    <filter
       color-interpolation-filters="sRGB"
       x="-0.5"
       y="-0.5"
       width="2"
       height="2"
       filterUnits="objectBoundingBox"
       id="filter-1-1">
      <feOffset
         dx="2"
         dy="2"
         in="SourceAlpha"
         result="shadowOffsetOuter1"
         id="feOffset11-8" />
      <feGaussianBlur
         stdDeviation="2"
         in="shadowOffsetOuter1"
         result="shadowBlurOuter1"
         id="feGaussianBlur13-90" />
      <feColorMatrix
         values="0 0 0 0 0   0 0 0 0 0   0 0 0 0 0  0 0 0 0.35 0"
         in="shadowBlurOuter1"
         type="matrix"
         result="shadowMatrixOuter1"
         id="feColorMatrix15-3" />
      <feMerge
         id="feMerge17-7">
        <feMergeNode
           in="shadowMatrixOuter1"
           id="feMergeNode19-6" />
        <feMergeNode
           in="SourceGraphic"
           id="feMergeNode21-3" />
      </feMerge>
    </filter>
    <filter
       color-interpolation-filters="sRGB"
       x="-0.5"
       y="-0.5"
       width="2"
       height="2"
       filterUnits="objectBoundingBox"
       id="filter-1-3">
      <feOffset
         dx="2"
         dy="2"
         in="SourceAlpha"
         result="shadowOffsetOuter1"
         id="feOffset11-5" />
      <feGaussianBlur
         stdDeviation="2"
         in="shadowOffsetOuter1"
         result="shadowBlurOuter1"
         id="feGaussianBlur13-9" />
      <feColorMatrix
         values="0 0 0 0 0   0 0 0 0 0   0 0 0 0 0  0 0 0 0.35 0"
         in="shadowBlurOuter1"
         type="matrix"
         result="shadowMatrixOuter1"
         id="feColorMatrix15-6" />
      <feMerge
         id="feMerge17-3">
        <feMergeNode
           in="shadowMatrixOuter1"
           id="feMergeNode19-1" />
        <feMergeNode
           in="SourceGraphic"
           id="feMergeNode21-2" />
      </feMerge>
    </filter>
    <filter
       color-interpolation-filters="sRGB"
       id="filter-1-0"
       filterUnits="objectBoundingBox"
       height="2"
       width="2"
       y="-0.5"
       x="-0.5">
      <feOffset
         id="feOffset11-56"
         result="shadowOffsetOuter1"
         in="SourceAlpha"
         dy="2"
         dx="2" />
      <feGaussianBlur
         id="feGaussianBlur13-0"
         result="shadowBlurOuter1"
         in="shadowOffsetOuter1"
         stdDeviation="2" />
      <feColorMatrix
         id="feColorMatrix15-79"
         result="shadowMatrixOuter1"
         type="matrix"
         in="shadowBlurOuter1"
         values="0 0 0 0 0   0 0 0 0 0   0 0 0 0 0  0 0 0 0.35 0" />
      <feMerge
         id="feMerge17-1">
        <feMergeNode
           id="feMergeNode19-9"
           in="shadowMatrixOuter1" />
        <feMergeNode
           id="feMergeNode21-35"
           in="SourceGraphic" />
      </feMerge>
    </filter>
  </defs>
  <sodipodi:namedview
     id="base"
     pagecolor="#ffffff"
     bordercolor="#666666"
     borderopacity="1.0"
     inkscape:pageopacity="0.0"
     inkscape:pageshadow="2"
     inkscape:zoom="1.9158867"
     inkscape:cx="108.64295"
     inkscape:cy="113.02101"
     inkscape:document-units="px"
     inkscape:current-layer="layer2"
     showgrid="false"
     units="mm"
     inkscape:window-width="1366"
     inkscape:window-height="744"
     inkscape:window-x="0"
     inkscape:window-y="24"
     inkscape:window-maximized="1"
     inkscape:showpageshadow="false"
     inkscape:object-paths="true"
     inkscape:snap-page="true"
     inkscape:snap-bbox="true"
     inkscape:snap-intersection-paths="true"
     inkscape:object-nodes="true"
     inkscape:snap-smooth-nodes="true"
     inkscape:snap-midpoints="true"
     inkscape:snap-object-midpoints="true"
     inkscape:snap-center="true"
     inkscape:snap-global="true"
     showguides="true"
     inkscape:guide-bbox="true" />
  <metadata
     id="metadata7">
    <rdf:RDF>
      <cc:Work
         rdf:about="">
        <dc:format>image/svg+xml</dc:format>
        <dc:type
           rdf:resource="http://purl.org/dc/dcmitype/StillImage" />
        <dc:title />
      </cc:Work>
    </rdf:RDF>
  </metadata>
  <g
     inkscape:groupmode="layer"
     id="layer2"
     inkscape:label="bg"
     style="display:inline">
    <path
       style="fill:#ffffff;fill-opacity:1;stroke:none"
       d="m 0,-3.0629596e-6 301.18109,0 0,194.8818930629596 -301.18109,0 z"
       id="rect3133"
       inkscape:connector-curvature="0" />
  </g>
  <g
     inkscape:groupmode="layer"
     id="layer1"
     inkscape:label="fg">
    <g
       id="g3150"
       transform="translate(-28.090547,67.440951)">
      <path
         sodipodi:nodetypes="ccccccccccccccccccccccccc"
         inkscape:connector-curvature="0"
         id="rect3902-6-28-1-5-4"
         d="m 56.181091,-6.208651e-6 0,4.999994008651 2.499997,2.4999995 0,4.9999987 -2.499997,2.499997 0,4.999994 4.999994,0 2.499997,-2.499997 0,-4.999994 4.999994,0 0,4.999994 2.499997,2.499997 4.999994,0 0,-4.999994 -2.499997,-2.499997 0,-4.9999987 2.499997,-2.4999995 0,-4.999994008651 -4.999994,0 L 68.681076,2.4999908 l 0,4.9999965 -4.999994,0 0,-4.9999965 L 61.181085,-6.208651e-6 z"
         style="fill:#26c6da;fill-opacity:1;stroke:none" />
      <g
         transform="matrix(0.24996081,0,0,0.2500386,53.681387,-240.59026)"
         style="font-size:114.26793671px;font-style:normal;font-weight:normal;line-height:100%;letter-spacing:-4px;word-spacing:-4px;fill:#37474f;fill-opacity:1;stroke:none;font-family:Sans"
         id="text2996">
        <path
           d="m 196.69753,1042.2001 0,-52.79181 -0.22854,0 -18.05433,52.79181 -15.19764,0 -18.1686,-53.47742 -0.22854,0 0,53.47742 -15.42617,0 0,-79.98758 21.25384,0 20.11116,58.84798 0.22853,0 19.99689,-58.84798 21.13957,0 0,79.98758 -15.42617,0"
           style="font-variant:normal;font-weight:bold;font-stretch:normal;line-height:100%;fill:#37474f;font-family:Quantico;-inkscape-font-specification:Quantico"
           id="path3316"
           inkscape:connector-curvature="0" />
        <path
           d="m 265.29035,1007.9197 0,34.2804 -15.99751,0 0,-79.98758 15.99751,0 0,31.99502 31.42368,0 0,-31.99502 15.99751,0 0,79.98758 -15.99751,0 0,-34.2804 -31.42368,0"
           style="font-variant:normal;font-weight:bold;font-stretch:normal;line-height:100%;fill:#37474f;font-family:Quantico;-inkscape-font-specification:Quantico"
           id="path3318"
           inkscape:connector-curvature="0" />
        <path
           d="m 365.11527,962.21252 28.56698,79.98758 -15.76897,0 -6.0562,-17.2545 -29.9382,0 -6.0562,17.2545 -15.76898,0 28.56699,-79.98758 16.45458,0 m -8.34156,20.11115 -10.05558,28.90983 20.22543,0 -9.94131,-28.90983 -0.22854,0"
           style="font-variant:normal;font-weight:bold;font-stretch:normal;line-height:100%;fill:#37474f;font-family:Quantico;-inkscape-font-specification:Quantico"
           id="path3320"
           inkscape:connector-curvature="0" />
        <path
           d="m 401.08939,1042.2001 0,-79.98758 15.99751,0 0,79.98758 -15.99751,0"
           style="font-variant:normal;font-weight:bold;font-stretch:normal;line-height:100%;fill:#37474f;font-family:Quantico;-inkscape-font-specification:Quantico"
           id="path3322"
           inkscape:connector-curvature="0" />
        <path
           d="m 494.85098,1034.5441 -13.25508,7.656 -49.02094,0 0,-79.98758 49.02094,0 13.25508,7.65595 0,64.67563 m -46.27851,-58.61943 0,52.56323 30.281,0 0,-52.56323 -30.281,0"
           style="font-variant:normal;font-weight:bold;font-stretch:normal;line-height:100%;fill:#37474f;font-family:Quantico;-inkscape-font-specification:Quantico"
           id="path3324"
           inkscape:connector-curvature="0" />
        <path
           d="m 547.28148,962.21252 28.56699,79.98758 -15.76898,0 -6.0562,-17.2545 -29.9382,0 -6.0562,17.2545 -15.76897,0 28.56698,-79.98758 16.45458,0 m -8.34155,20.11115 -10.05558,28.90983 20.22542,0 -9.94131,-28.90983 -0.22853,0"
           style="font-variant:normal;font-weight:bold;font-stretch:normal;line-height:100%;fill:#37474f;font-family:Quantico;-inkscape-font-specification:Quantico"
           id="path3326"
           inkscape:connector-curvature="0" />
        <path
           d="m 643.9319,1042.2001 -17.59727,0 -17.14019,-30.1668 -9.94131,0 0,30.1668 -15.99751,0 0,-79.98758 43.30755,0 13.25508,7.65595 0,34.50893 -13.25508,7.6559 17.36873,30.1668 m -44.67877,-66.27543 0,22.39652 24.56761,0 0,-22.39652 -24.56761,0"
           style="font-variant:normal;font-weight:bold;font-stretch:normal;line-height:100%;fill:#37474f;font-family:Quantico;-inkscape-font-specification:Quantico"
           id="path3328"
           inkscape:connector-curvature="0" />
        <path
           d="m 692.81707,1007.9197 0,34.2804 -15.99751,0 0,-79.98758 15.99751,0 0,31.99502 31.42368,0 0,-31.99502 15.99751,0 0,79.98758 -15.99751,0 0,-34.2804 -31.42368,0"
           style="font-variant:normal;font-weight:bold;font-stretch:normal;line-height:100%;fill:#37474f;font-family:Quantico;-inkscape-font-specification:Quantico"
           id="path3330"
           inkscape:connector-curvature="0" />
        <path
           d="m 792.64199,962.21252 28.56698,79.98758 -15.76897,0 -6.0562,-17.2545 -29.9382,0 -6.0562,17.2545 -15.76898,0 28.56699,-79.98758 16.45458,0 m -8.34156,20.11115 -10.05558,28.90983 20.22543,0 -9.94131,-28.90983 -0.22854,0"
           style="font-variant:normal;font-weight:bold;font-stretch:normal;line-height:100%;fill:#37474f;font-family:Quantico;-inkscape-font-specification:Quantico"
           id="path3332"
           inkscape:connector-curvature="0" />
        <path
           d="m 844.61364,990.4367 0,51.7634 -15.99751,0 0,-79.98758 14.9691,0 34.50891,51.76338 0.22854,0 0,-51.76338 15.99751,0 0,79.98758 -14.9691,0 -34.50892,-51.7634 -0.22853,0"
           style="font-variant:normal;font-weight:bold;font-stretch:normal;line-height:100%;fill:#37474f;font-family:Quantico;-inkscape-font-specification:Quantico"
           id="path3334"
           inkscape:connector-curvature="0" />
        <path
           d="m 909.64756,1042.2001 0,-79.98758 15.99751,0 0,79.98758 -15.99751,0"
           style="font-variant:normal;font-weight:bold;font-stretch:normal;line-height:100%;fill:#37474f;font-family:Quantico;-inkscape-font-specification:Quantico"
           id="path3336"
           inkscape:connector-curvature="0" />
        <path
           d="m 957.1306,1007.9197 0,34.2804 -15.99751,0 0,-79.98758 49.02095,0 0,13.71215 -33.02344,0 0,18.28287 26.16736,0 0,13.71216 -26.16736,0"
           style="font-variant:normal;font-weight:bold;font-stretch:normal;line-height:100%;fill:#37474f;font-family:Quantico;-inkscape-font-specification:Quantico"
           id="path3338"
           inkscape:connector-curvature="0" />
      </g>
    </g>
    <g
       id="g3382"
       transform="matrix(0.33333333,0,0,0.33333333,33.923879,100.77428)">
      <path
         inkscape:connector-curvature="0"
         style="color:#000000;fill:#000000;stroke:none;overflow:visible"
         id="path4-3-1"
         overflow="visible"
         d="m 20.000004,20 v 20.000025 h 9.999997 v 19.99995 H 20.000004 V 80 H 40.000006 V 70.000025 H 60.000001 V 80 H 80.000004 V 59.999975 h -9.999998 v -19.99995 h 9.999998 V 20 H 60.000001 v 9.999975 H 40.000006 V 20 H 20.000004 z m 20.000002,20.000025 h 19.999995 v 19.99995 H 40.000006 v -19.99995 z">
        <title
           id="title6-8-9">logogram</title>
      </path>
      <path
         style="color:#000000;fill:#78909c;fill-opacity:1;fill-rule:nonzero;stroke:none;stroke-width:1px;marker:none;visibility:visible;display:inline;overflow:visible;enable-background:accumulate"
         d="m 95.000004,20 0,60 L 110,80 l 0,-22.5 30,0 0,22.5 15,0 0,-60 -15,0 0,22.5 -30,0 0,-22.5 z"
         id="path6399-0-0"
         inkscape:connector-curvature="0"
         sodipodi:nodetypes="ccccccccccccc" />
      <path
         style="color:#000000;fill:#ef5350;fill-opacity:1;fill-rule:nonzero;stroke:none;stroke-width:1px;marker:none;visibility:visible;display:inline;overflow:visible;enable-background:accumulate"
         d="m 170,20 0,60 15,0 0,-22.5 30,0 0,22.5 15,0 0,-60 z m 15,15 30,0 0,7.5 -30,0 z"
         id="path6401-2-3"
         inkscape:connector-curvature="0"
         sodipodi:nodetypes="cccccccccccccc" />
      <path
         style="color:#000000;fill:#ffca28;fill-opacity:1;fill-rule:nonzero;stroke:none;stroke-width:1px;marker:none;visibility:visible;display:inline;overflow:visible;enable-background:accumulate"
         d="m 245,20 0,15 30,0 0,15 15,0 0,-15 15,0 0,-15 -60,0 z m 30,30 -15,0 0,15 -15,0 0,15 60,0 0,-15 -30,0 0,-15 z"
         id="path6413-3-0"
         inkscape:connector-curvature="0" />
      <path
         style="color:#000000;fill:#26a69a;fill-opacity:1;fill-rule:nonzero;stroke:none;stroke-width:1px;marker:none;visibility:visible;display:inline;overflow:visible;enable-background:accumulate"
         d="m 320,20 0,60 60,0 0,-15 -45,0 0,-7.5 45,0 0,-15 -45,0 0,-7.5 45,0 0,-15 z"
         id="path6403-1-2"
         inkscape:connector-curvature="0"
         sodipodi:nodetypes="ccccccccccccc" />
      <path
         style="color:#000000;fill:#42a5f5;fill-opacity:1;fill-rule:nonzero;stroke:none;stroke-width:1px;marker:none;visibility:visible;display:inline;overflow:visible;enable-background:accumulate"
         d="m 395,20 0,60 60,0 0,-60 z m 15,15 30,0 0,30 -30,0 z"
         id="path6405-9-6"
         inkscape:connector-curvature="0"
         sodipodi:nodetypes="cccccccccc" />
      <path
         style="color:#000000;fill:#ab47bc;fill-opacity:1;fill-rule:nonzero;stroke:none;stroke-width:1px;marker:none;visibility:visible;display:inline;overflow:visible;enable-background:accumulate"
         d="m 470,20 0,60 15,0 0,-22.5 15,0 0,7.5 15,0 0,-7.5 15,0 0,-37.5 z m 45,45 0,15 15,0 0,-15 z m -30,-30 30,0 0,7.5 -30,0 z"
         id="path6407-9-0"
         inkscape:connector-curvature="0"
         sodipodi:nodetypes="ccccccccccccccccccccc" />
      <path
         style="color:#000000;fill:#8d6e63;fill-opacity:1;fill-rule:nonzero;stroke:none;stroke-width:1px;marker:none;visibility:visible;display:inline;overflow:visible;enable-background:accumulate"
         d="m 545,20 0,15 22.5,0 0,30 -22.5,0 0,15 60,0 0,-15 -22.5,0 0,-30 22.5,0 0,-15 z"
         id="path6409-9-6"
         inkscape:connector-curvature="0"
         sodipodi:nodetypes="ccccccccccccc" />
      <path
         style="color:#000000;fill:#bdbdbd;fill-opacity:1;fill-rule:nonzero;stroke:none;stroke-width:1px;marker:none;visibility:visible;display:inline;overflow:visible;enable-background:accumulate"
         d="m 620,20 0,60 45,0 0,-15 -30,0 0,-30 30,0 0,-15 z m 45,15 0,30 15,0 0,-30 z"
         id="path6411-0-8"
         inkscape:connector-curvature="0"
         sodipodi:nodetypes="cccccccccccccc" />
    </g>
  </g>
</svg>
