<svg xmlns="http://www.w3.org/2000/svg" xmlns:svg="http://www.w3.org/2000/svg" id="svg2" width="85mm" height="55mm" version="1.1" viewBox="0 0 301.181 194.882"><defs id="defs4"><filter id="filter-1" width="2" height="2" x="-.5" y="-.5" filterUnits="objectBoundingBox"><feOffset id="feOffset11" dx="2" dy="2" in="SourceAlpha" result="shadowOffsetOuter1"/><feGaussianBlur id="feGaussianBlur13" in="shadowOffsetOuter1" result="shadowBlurOuter1" stdDeviation="2"/><feColorMatrix id="feColorMatrix15" in="shadowBlurOuter1" result="shadowMatrixOuter1" type="matrix" values="0 0 0 0 0 0 0 0 0 0 0 0 0 0 0 0 0 0 0.35 0"/><feMerge id="feMerge17"><feMergeNode id="feMergeNode19" in="shadowMatrixOuter1"/><feMergeNode id="feMergeNode21" in="SourceGraphic"/></feMerge></filter><mask id="mask4233" maskUnits="userSpaceOnUse"><rect id="rect4235" width="650" height="150" x="310" y="650" style="fill:#ff2a2a;fill-opacity:1"/></mask><filter id="filter-1-6" width="2" height="2" x="-.5" y="-.5" color-interpolation-filters="sRGB" filterUnits="objectBoundingBox"><feOffset id="feOffset11-71" dx="2" dy="2" in="SourceAlpha" result="shadowOffsetOuter1"/><feGaussianBlur id="feGaussianBlur13-6" in="shadowOffsetOuter1" result="shadowBlurOuter1" stdDeviation="2"/><feColorMatrix id="feColorMatrix15-7" in="shadowBlurOuter1" result="shadowMatrixOuter1" type="matrix" values="0 0 0 0 0 0 0 0 0 0 0 0 0 0 0 0 0 0 0.35 0"/><feMerge id="feMerge17-8"><feMergeNode id="feMergeNode19-63" in="shadowMatrixOuter1"/><feMergeNode id="feMergeNode21-5" in="SourceGraphic"/></feMerge></filter><filter id="filter-1-36" width="2" height="2" x="-.5" y="-.5" color-interpolation-filters="sRGB" filterUnits="objectBoundingBox"><feOffset id="feOffset11-7" dx="2" dy="2" in="SourceAlpha" result="shadowOffsetOuter1"/><feGaussianBlur id="feGaussianBlur13-4" in="shadowOffsetOuter1" result="shadowBlurOuter1" stdDeviation="2"/><feColorMatrix id="feColorMatrix15-65" in="shadowBlurOuter1" result="shadowMatrixOuter1" type="matrix" values="0 0 0 0 0 0 0 0 0 0 0 0 0 0 0 0 0 0 0.35 0"/><feMerge id="feMerge17-6"><feMergeNode id="feMergeNode19-7" in="shadowMatrixOuter1"/><feMergeNode id="feMergeNode21-8" in="SourceGraphic"/></feMerge></filter><filter id="filter-1-1" width="2" height="2" x="-.5" y="-.5" color-interpolation-filters="sRGB" filterUnits="objectBoundingBox"><feOffset id="feOffset11-8" dx="2" dy="2" in="SourceAlpha" result="shadowOffsetOuter1"/><feGaussianBlur id="feGaussianBlur13-90" in="shadowOffsetOuter1" result="shadowBlurOuter1" stdDeviation="2"/><feColorMatrix id="feColorMatrix15-3" in="shadowBlurOuter1" result="shadowMatrixOuter1" type="matrix" values="0 0 0 0 0 0 0 0 0 0 0 0 0 0 0 0 0 0 0.35 0"/><feMerge id="feMerge17-7"><feMergeNode id="feMergeNode19-6" in="shadowMatrixOuter1"/><feMergeNode id="feMergeNode21-3" in="SourceGraphic"/></feMerge></filter><filter id="filter-1-3" width="2" height="2" x="-.5" y="-.5" color-interpolation-filters="sRGB" filterUnits="objectBoundingBox"><feOffset id="feOffset11-5" dx="2" dy="2" in="SourceAlpha" result="shadowOffsetOuter1"/><feGaussianBlur id="feGaussianBlur13-9" in="shadowOffsetOuter1" result="shadowBlurOuter1" stdDeviation="2"/><feColorMatrix id="feColorMatrix15-6" in="shadowBlurOuter1" result="shadowMatrixOuter1" type="matrix" values="0 0 0 0 0 0 0 0 0 0 0 0 0 0 0 0 0 0 0.35 0"/><feMerge id="feMerge17-3"><feMergeNode id="feMergeNode19-1" in="shadowMatrixOuter1"/><feMergeNode id="feMergeNode21-2" in="SourceGraphic"/></feMerge></filter><filter id="filter-1-0" width="2" height="2" x="-.5" y="-.5" color-interpolation-filters="sRGB" filterUnits="objectBoundingBox"><feOffset id="feOffset11-56" dx="2" dy="2" in="SourceAlpha" result="shadowOffsetOuter1"/><feGaussianBlur id="feGaussianBlur13-0" in="shadowOffsetOuter1" result="shadowBlurOuter1" stdDeviation="2"/><feColorMatrix id="feColorMatrix15-79" in="shadowBlurOuter1" result="shadowMatrixOuter1" type="matrix" values="0 0 0 0 0 0 0 0 0 0 0 0 0 0 0 0 0 0 0.35 0"/><feMerge id="feMerge17-1"><feMergeNode id="feMergeNode19-9" in="shadowMatrixOuter1"/><feMergeNode id="feMergeNode21-35" in="SourceGraphic"/></feMerge></filter></defs><metadata id="metadata7"/><g id="layer2" style="display:inline"><path style="fill:#fff;fill-opacity:1;stroke:none" id="rect3133" d="m 0,-3.0629596e-6 301.18109,0 0,194.8818930629596 -301.18109,0 z"/></g><g id="layer1"><g id="g3150" transform="translate(-28.090547,67.440951)"><path id="rect3902-6-28-1-5-4" d="m 56.181091,-6.208651e-6 0,4.999994008651 2.499997,2.4999995 0,4.9999987 -2.499997,2.499997 0,4.999994 4.999994,0 2.499997,-2.499997 0,-4.999994 4.999994,0 0,4.999994 2.499997,2.499997 4.999994,0 0,-4.999994 -2.499997,-2.499997 0,-4.9999987 2.499997,-2.4999995 0,-4.999994008651 -4.999994,0 L 68.681076,2.4999908 l 0,4.9999965 -4.999994,0 0,-4.9999965 L 61.181085,-6.208651e-6 z" style="fill:#26c6da;fill-opacity:1;stroke:none"/><g style="font-size:114.26793671px;font-style:normal;font-weight:400;line-height:100%;letter-spacing:-4px;word-spacing:-4px;fill:#37474f;fill-opacity:1;stroke:none;font-family:Sans" id="text2996" transform="matrix(0.24996081,0,0,0.2500386,53.681387,-240.59026)"><path style="font-variant:normal;font-weight:700;font-stretch:normal;line-height:100%;fill:#37474f;font-family:Quantico;-inkscape-font-specification:Quantico" id="path3316" d="m 196.69753,1042.2001 0,-52.79181 -0.22854,0 -18.05433,52.79181 -15.19764,0 -18.1686,-53.47742 -0.22854,0 0,53.47742 -15.42617,0 0,-79.98758 21.25384,0 20.11116,58.84798 0.22853,0 19.99689,-58.84798 21.13957,0 0,79.98758 -15.42617,0"/><path style="font-variant:normal;font-weight:700;font-stretch:normal;line-height:100%;fill:#37474f;font-family:Quantico;-inkscape-font-specification:Quantico" id="path3318" d="m 265.29035,1007.9197 0,34.2804 -15.99751,0 0,-79.98758 15.99751,0 0,31.99502 31.42368,0 0,-31.99502 15.99751,0 0,79.98758 -15.99751,0 0,-34.2804 -31.42368,0"/><path style="font-variant:normal;font-weight:700;font-stretch:normal;line-height:100%;fill:#37474f;font-family:Quantico;-inkscape-font-specification:Quantico" id="path3320" d="m 365.11527,962.21252 28.56698,79.98758 -15.76897,0 -6.0562,-17.2545 -29.9382,0 -6.0562,17.2545 -15.76898,0 28.56699,-79.98758 16.45458,0 m -8.34156,20.11115 -10.05558,28.90983 20.22543,0 -9.94131,-28.90983 -0.22854,0"/><path style="font-variant:normal;font-weight:700;font-stretch:normal;line-height:100%;fill:#37474f;font-family:Quantico;-inkscape-font-specification:Quantico" id="path3322" d="m 401.08939,1042.2001 0,-79.98758 15.99751,0 0,79.98758 -15.99751,0"/><path style="font-variant:normal;font-weight:700;font-stretch:normal;line-height:100%;fill:#37474f;font-family:Quantico;-inkscape-font-specification:Quantico" id="path3324" d="m 494.85098,1034.5441 -13.25508,7.656 -49.02094,0 0,-79.98758 49.02094,0 13.25508,7.65595 0,64.67563 m -46.27851,-58.61943 0,52.56323 30.281,0 0,-52.56323 -30.281,0"/><path style="font-variant:normal;font-weight:700;font-stretch:normal;line-height:100%;fill:#37474f;font-family:Quantico;-inkscape-font-specification:Quantico" id="path3326" d="m 547.28148,962.21252 28.56699,79.98758 -15.76898,0 -6.0562,-17.2545 -29.9382,0 -6.0562,17.2545 -15.76897,0 28.56698,-79.98758 16.45458,0 m -8.34155,20.11115 -10.05558,28.90983 20.22542,0 -9.94131,-28.90983 -0.22853,0"/><path style="font-variant:normal;font-weight:700;font-stretch:normal;line-height:100%;fill:#37474f;font-family:Quantico;-inkscape-font-specification:Quantico" id="path3328" d="m 643.9319,1042.2001 -17.59727,0 -17.14019,-30.1668 -9.94131,0 0,30.1668 -15.99751,0 0,-79.98758 43.30755,0 13.25508,7.65595 0,34.50893 -13.25508,7.6559 17.36873,30.1668 m -44.67877,-66.27543 0,22.39652 24.56761,0 0,-22.39652 -24.56761,0"/><path style="font-variant:normal;font-weight:700;font-stretch:normal;line-height:100%;fill:#37474f;font-family:Quantico;-inkscape-font-specification:Quantico" id="path3330" d="m 692.81707,1007.9197 0,34.2804 -15.99751,0 0,-79.98758 15.99751,0 0,31.99502 31.42368,0 0,-31.99502 15.99751,0 0,79.98758 -15.99751,0 0,-34.2804 -31.42368,0"/><path style="font-variant:normal;font-weight:700;font-stretch:normal;line-height:100%;fill:#37474f;font-family:Quantico;-inkscape-font-specification:Quantico" id="path3332" d="m 792.64199,962.21252 28.56698,79.98758 -15.76897,0 -6.0562,-17.2545 -29.9382,0 -6.0562,17.2545 -15.76898,0 28.56699,-79.98758 16.45458,0 m -8.34156,20.11115 -10.05558,28.90983 20.22543,0 -9.94131,-28.90983 -0.22854,0"/><path style="font-variant:normal;font-weight:700;font-stretch:normal;line-height:100%;fill:#37474f;font-family:Quantico;-inkscape-font-specification:Quantico" id="path3334" d="m 844.61364,990.4367 0,51.7634 -15.99751,0 0,-79.98758 14.9691,0 34.50891,51.76338 0.22854,0 0,-51.76338 15.99751,0 0,79.98758 -14.9691,0 -34.50892,-51.7634 -0.22853,0"/><path style="font-variant:normal;font-weight:700;font-stretch:normal;line-height:100%;fill:#37474f;font-family:Quantico;-inkscape-font-specification:Quantico" id="path3336" d="m 909.64756,1042.2001 0,-79.98758 15.99751,0 0,79.98758 -15.99751,0"/><path style="font-variant:normal;font-weight:700;font-stretch:normal;line-height:100%;fill:#37474f;font-family:Quantico;-inkscape-font-specification:Quantico" id="path3338" d="m 957.1306,1007.9197 0,34.2804 -15.99751,0 0,-79.98758 49.02095,0 0,13.71215 -33.02344,0 0,18.28287 26.16736,0 0,13.71216 -26.16736,0"/></g></g><g id="g3382" transform="matrix(0.33333333,0,0,0.33333333,33.923879,100.77428)"><path style="color:#000;fill:#000;stroke:none;overflow:visible" id="path4-3-1" d="m 20.000004,20 v 20.000025 h 9.999997 v 19.99995 H 20.000004 V 80 H 40.000006 V 70.000025 H 60.000001 V 80 H 80.000004 V 59.999975 h -9.999998 v -19.99995 h 9.999998 V 20 H 60.000001 v 9.999975 H 40.000006 V 20 H 20.000004 z m 20.000002,20.000025 h 19.999995 v 19.99995 H 40.000006 v -19.99995 z" overflow="visible"><title id="title6-8-9">logogram</title></path><path style="color:#000;fill:#78909c;fill-opacity:1;fill-rule:nonzero;stroke:none;stroke-width:1px;marker:none;visibility:visible;display:inline;overflow:visible;enable-background:accumulate" id="path6399-0-0" d="m 95.000004,20 0,60 L 110,80 l 0,-22.5 30,0 0,22.5 15,0 0,-60 -15,0 0,22.5 -30,0 0,-22.5 z"/><path style="color:#000;fill:#ef5350;fill-opacity:1;fill-rule:nonzero;stroke:none;stroke-width:1px;marker:none;visibility:visible;display:inline;overflow:visible;enable-background:accumulate" id="path6401-2-3" d="m 170,20 0,60 15,0 0,-22.5 30,0 0,22.5 15,0 0,-60 z m 15,15 30,0 0,7.5 -30,0 z"/><path style="color:#000;fill:#ffca28;fill-opacity:1;fill-rule:nonzero;stroke:none;stroke-width:1px;marker:none;visibility:visible;display:inline;overflow:visible;enable-background:accumulate" id="path6413-3-0" d="m 245,20 0,15 30,0 0,15 15,0 0,-15 15,0 0,-15 -60,0 z m 30,30 -15,0 0,15 -15,0 0,15 60,0 0,-15 -30,0 0,-15 z"/><path style="color:#000;fill:#26a69a;fill-opacity:1;fill-rule:nonzero;stroke:none;stroke-width:1px;marker:none;visibility:visible;display:inline;overflow:visible;enable-background:accumulate" id="path6403-1-2" d="m 320,20 0,60 60,0 0,-15 -45,0 0,-7.5 45,0 0,-15 -45,0 0,-7.5 45,0 0,-15 z"/><path style="color:#000;fill:#42a5f5;fill-opacity:1;fill-rule:nonzero;stroke:none;stroke-width:1px;marker:none;visibility:visible;display:inline;overflow:visible;enable-background:accumulate" id="path6405-9-6" d="m 395,20 0,60 60,0 0,-60 z m 15,15 30,0 0,30 -30,0 z"/><path style="color:#000;fill:#ab47bc;fill-opacity:1;fill-rule:nonzero;stroke:none;stroke-width:1px;marker:none;visibility:visible;display:inline;overflow:visible;enable-background:accumulate" id="path6407-9-0" d="m 470,20 0,60 15,0 0,-22.5 15,0 0,7.5 15,0 0,-7.5 15,0 0,-37.5 z m 45,45 0,15 15,0 0,-15 z m -30,-30 30,0 0,7.5 -30,0 z"/><path style="color:#000;fill:#8d6e63;fill-opacity:1;fill-rule:nonzero;stroke:none;stroke-width:1px;marker:none;visibility:visible;display:inline;overflow:visible;enable-background:accumulate" id="path6409-9-6" d="m 545,20 0,15 22.5,0 0,30 -22.5,0 0,15 60,0 0,-15 -22.5,0 0,-30 22.5,0 0,-15 z"/><path style="color:#000;fill:#bdbdbd;fill-opacity:1;fill-rule:nonzero;stroke:none;stroke-width:1px;marker:none;visibility:visible;display:inline;overflow:visible;enable-background:accumulate" id="path6411-0-8" d="m 620,20 0,60 45,0 0,-15 -30,0 0,-30 30,0 0,-15 z m 45,15 0,30 15,0 0,-30 z"/></g></g></svg>