<svg xmlns="http://www.w3.org/2000/svg" xmlns:svg="http://www.w3.org/2000/svg" id="svg2" width="85mm" height="55mm" version="1.1" viewBox="0 0 301.181 194.882"><metadata id="metadata7"/><g id="layer2" transform="translate(0,3.614174)" style="display:inline"><rect style="fill:#37474f;fill-opacity:1;stroke:none" id="rect4175" width="301.181" height="194.882" x="0" y="-3.614"/></g><g id="layer1" transform="translate(0,-857.48031)" style="display:inline"><g id="g3047" transform="translate(-2.9551612,0.004855)"><path id="rect4381" d="m 91.481273,931.92306 78.915467,0 0,4 -78.915467,0 z" style="font-size:medium;font-style:normal;font-weight:400;line-height:125%;letter-spacing:0;word-spacing:0;fill:#42a5f5;fill-opacity:1;stroke:none;font-family:Sans"/><path id="rect3902-6-28-1-5-4" d="m 43.629567,905.92306 0,4 1.999998,2 0,4 -1.999998,2 0,3.99999 3.999996,0 1.999999,-2 0,-3.99999 3.999996,0 0,3.99999 1.999999,2 3.999996,0 0,-3.99999 -1.999998,-2 0,-4 1.999998,-2 0,-4 -3.999996,0 -1.999999,2 0,4 -3.999996,0 0,-4 -1.999999,-2 z" style="fill:#26c6da;fill-opacity:1;stroke:none"/><g style="font-size:114.26793671px;font-style:normal;font-weight:400;line-height:100%;letter-spacing:-4px;word-spacing:-4px;fill:#fff;fill-opacity:1;stroke:none;font-family:Sans" id="text2996" transform="matrix(0.19996872,0,0,0.20003095,41.630502,713.45079)"><path style="font-variant:normal;font-weight:700;font-stretch:normal;line-height:100%;fill:#fff;font-family:Quantico;-inkscape-font-specification:Quantico" id="path3341" d="m 196.69753,1042.2001 0,-52.79181 -0.22854,0 -18.05433,52.79181 -15.19764,0 -18.1686,-53.47742 -0.22854,0 0,53.47742 -15.42617,0 0,-79.98758 21.25384,0 20.11116,58.84798 0.22853,0 19.99689,-58.84798 21.13957,0 0,79.98758 -15.42617,0"/><path style="font-variant:normal;font-weight:700;font-stretch:normal;line-height:100%;fill:#fff;font-family:Quantico;-inkscape-font-specification:Quantico" id="path3343" d="m 265.29035,1007.9197 0,34.2804 -15.99751,0 0,-79.98758 15.99751,0 0,31.99502 31.42368,0 0,-31.99502 15.99751,0 0,79.98758 -15.99751,0 0,-34.2804 -31.42368,0"/><path style="font-variant:normal;font-weight:700;font-stretch:normal;line-height:100%;fill:#fff;font-family:Quantico;-inkscape-font-specification:Quantico" id="path3345" d="m 365.11527,962.21252 28.56698,79.98758 -15.76897,0 -6.0562,-17.2545 -29.9382,0 -6.0562,17.2545 -15.76898,0 28.56699,-79.98758 16.45458,0 m -8.34156,20.11115 -10.05558,28.90983 20.22543,0 -9.94131,-28.90983 -0.22854,0"/><path style="font-variant:normal;font-weight:700;font-stretch:normal;line-height:100%;fill:#fff;font-family:Quantico;-inkscape-font-specification:Quantico" id="path3347" d="m 401.08939,1042.2001 0,-79.98758 15.99751,0 0,79.98758 -15.99751,0"/><path style="font-variant:normal;font-weight:700;font-stretch:normal;line-height:100%;fill:#fff;font-family:Quantico;-inkscape-font-specification:Quantico" id="path3349" d="m 494.85098,1034.5441 -13.25508,7.656 -49.02094,0 0,-79.98758 49.02094,0 13.25508,7.65595 0,64.67563 m -46.27851,-58.61943 0,52.56323 30.281,0 0,-52.56323 -30.281,0"/><path style="font-variant:normal;font-weight:700;font-stretch:normal;line-height:100%;fill:#fff;font-family:Quantico;-inkscape-font-specification:Quantico" id="path3351" d="m 547.28148,962.21252 28.56699,79.98758 -15.76898,0 -6.0562,-17.2545 -29.9382,0 -6.0562,17.2545 -15.76897,0 28.56698,-79.98758 16.45458,0 m -8.34155,20.11115 -10.05558,28.90983 20.22542,0 -9.94131,-28.90983 -0.22853,0"/><path style="font-variant:normal;font-weight:700;font-stretch:normal;line-height:100%;fill:#fff;font-family:Quantico;-inkscape-font-specification:Quantico" id="path3353" d="m 643.9319,1042.2001 -17.59727,0 -17.14019,-30.1668 -9.94131,0 0,30.1668 -15.99751,0 0,-79.98758 43.30755,0 13.25508,7.65595 0,34.50893 -13.25508,7.6559 17.36873,30.1668 m -44.67877,-66.27543 0,22.39652 24.56761,0 0,-22.39652 -24.56761,0"/><path style="font-variant:normal;font-weight:700;font-stretch:normal;line-height:100%;fill:#fff;font-family:Quantico;-inkscape-font-specification:Quantico" id="path3355" d="m 692.81707,1007.9197 0,34.2804 -15.99751,0 0,-79.98758 15.99751,0 0,31.99502 31.42368,0 0,-31.99502 15.99751,0 0,79.98758 -15.99751,0 0,-34.2804 -31.42368,0"/><path style="font-variant:normal;font-weight:700;font-stretch:normal;line-height:100%;fill:#fff;font-family:Quantico;-inkscape-font-specification:Quantico" id="path3357" d="m 792.64199,962.21252 28.56698,79.98758 -15.76897,0 -6.0562,-17.2545 -29.9382,0 -6.0562,17.2545 -15.76898,0 28.56699,-79.98758 16.45458,0 m -8.34156,20.11115 -10.05558,28.90983 20.22543,0 -9.94131,-28.90983 -0.22854,0"/><path style="font-variant:normal;font-weight:700;font-stretch:normal;line-height:100%;fill:#fff;font-family:Quantico;-inkscape-font-specification:Quantico" id="path3359" d="m 844.61364,990.4367 0,51.7634 -15.99751,0 0,-79.98758 14.9691,0 34.50891,51.76338 0.22854,0 0,-51.76338 15.99751,0 0,79.98758 -14.9691,0 -34.50892,-51.7634 -0.22853,0"/><path style="font-variant:normal;font-weight:700;font-stretch:normal;line-height:100%;fill:#fff;font-family:Quantico;-inkscape-font-specification:Quantico" id="path3361" d="m 909.64756,1042.2001 0,-79.98758 15.99751,0 0,79.98758 -15.99751,0"/><path style="font-variant:normal;font-weight:700;font-stretch:normal;line-height:100%;fill:#fff;font-family:Quantico;-inkscape-font-specification:Quantico" id="path3363" d="m 957.1306,1007.9197 0,34.2804 -15.99751,0 0,-79.98758 49.02095,0 0,13.71215 -33.02344,0 0,18.28287 26.16736,0 0,13.71216 -26.16736,0"/></g><path id="rect4381-7-8" d="m 67.505195,959.92306 172.125145,0 0,4 -172.125145,0 z" style="font-size:medium;font-style:normal;font-weight:400;line-height:125%;letter-spacing:0;word-spacing:0;fill:#66bb6a;fill-opacity:1;stroke:none;font-family:Sans"/><g id="text3051-7-7" transform="translate(5.63578,-4.45731)" style="font-size:11.26760578px;font-style:normal;font-weight:400;line-height:125%;letter-spacing:0;word-spacing:0;fill:#66bb6a;fill-opacity:1;stroke:none;font-family:Sans"><path id="path3435" d="m 238.99456,968.32404 0,-2.14085 2.14084,0 0,2.14085 -2.14084,0" style="font-variant:normal;font-weight:700;font-stretch:normal;fill:#66bb6a;fill-opacity:1;font-family:Quantico;-inkscape-font-specification:Quantico"/><path id="path3437" d="m 247.39861,966.01418 1.57746,0 0,1.61126 -1.30704,0.75493 -3.18873,0 -1.30705,-0.75493 0,-6.49014 1.30705,-0.75493 3.18873,0 1.30704,0.75493 0,1.61127 -1.57746,0 0,-1.01408 -2.64789,0 0,5.29577 2.64789,0 0,-1.01408" style="font-variant:normal;font-weight:700;font-stretch:normal;fill:#66bb6a;fill-opacity:1;font-family:Quantico;-inkscape-font-specification:Quantico"/><path id="path3439" d="m 256.92853,967.62544 -1.30704,0.75493 -3.52676,0 -1.30704,-0.75493 0,-6.49014 1.30704,-0.75493 3.52676,0 1.30704,0.75493 0,6.49014 m -4.56338,-5.89295 0,5.29577 2.98592,0 0,-5.29577 -2.98592,0" style="font-variant:normal;font-weight:700;font-stretch:normal;fill:#66bb6a;fill-opacity:1;font-family:Quantico;-inkscape-font-specification:Quantico"/><path id="path3441" d="m 265.47889,968.32404 0,-5.20564 -0.0225,0 -1.78028,5.20564 -1.49859,0 -1.79155,-5.27324 -0.0225,0 0,5.27324 -1.52112,0 0,-7.88733 2.09577,0 1.9831,5.80282 0.0225,0 1.97183,-5.80282 2.0845,0 0,7.88733 -1.52112,0" style="font-variant:normal;font-weight:700;font-stretch:normal;fill:#66bb6a;fill-opacity:1;font-family:Quantico;-inkscape-font-specification:Quantico"/></g><path id="rect4381-7-8-4" d="m 67.505195,973.92306 172.125145,0 0,4 -172.125145,0 z" style="font-size:medium;font-style:normal;font-weight:400;line-height:125%;letter-spacing:0;word-spacing:0;fill:#26a69a;fill-opacity:1;stroke:none;font-family:Sans"/><path style="font-size:11.4285717px;font-style:normal;font-variant:normal;font-weight:700;font-stretch:normal;line-height:125%;letter-spacing:0;word-spacing:0;fill:#26a69a;fill-opacity:1;stroke:none;font-family:Quantico;-inkscape-font-specification:Quantico" id="path3600" d="m 61.408269,977.92306 -5.843973,0 -1.096927,-0.63357 0,-6.73286 1.096927,-0.63357 5.843973,0 1.096926,0.63357 0,5.04964 -1.096926,0.63358 -1.985816,0 -0.624114,-0.38771 -0.718676,0.38771 -0.765958,0 -1.030733,-0.63358 0.368794,-3.46099 1.163122,-0.63357 0.765957,0 0.624114,0.38771 0.718676,-0.38771 0.624114,0 -0.387708,3.68794 1.11584,0 0,-4.2364 -5.579198,0 0,5.91962 5.711586,0 0,1.04019 m -3.517732,-5.30497 -0.255318,2.51537 1.238771,0 0.255318,-2.51537 -1.238771,0"/><g id="text3051-7-7-1" transform="translate(5.63578,9.54269)" style="font-size:11.26760578px;font-style:normal;font-weight:400;line-height:125%;letter-spacing:0;word-spacing:0;fill:#26a69a;fill-opacity:1;stroke:none;font-family:Sans"><path id="path3435-6" d="m 238.99456,968.32404 0,-2.14085 2.14084,0 0,2.14085 -2.14084,0" style="font-variant:normal;font-weight:700;font-stretch:normal;fill:#26a69a;fill-opacity:1;font-family:Quantico;-inkscape-font-specification:Quantico"/><path id="path3437-5" d="m 247.39861,966.01418 1.57746,0 0,1.61126 -1.30704,0.75493 -3.18873,0 -1.30705,-0.75493 0,-6.49014 1.30705,-0.75493 3.18873,0 1.30704,0.75493 0,1.61127 -1.57746,0 0,-1.01408 -2.64789,0 0,5.29577 2.64789,0 0,-1.01408" style="font-variant:normal;font-weight:700;font-stretch:normal;fill:#26a69a;fill-opacity:1;font-family:Quantico;-inkscape-font-specification:Quantico"/><path id="path3439-6" d="m 256.92853,967.62544 -1.30704,0.75493 -3.52676,0 -1.30704,-0.75493 0,-6.49014 1.30704,-0.75493 3.52676,0 1.30704,0.75493 0,6.49014 m -4.56338,-5.89295 0,5.29577 2.98592,0 0,-5.29577 -2.98592,0" style="font-variant:normal;font-weight:700;font-stretch:normal;fill:#26a69a;fill-opacity:1;font-family:Quantico;-inkscape-font-specification:Quantico"/><path id="path3441-1" d="m 265.47889,968.32404 0,-5.20564 -0.0225,0 -1.78028,5.20564 -1.49859,0 -1.79155,-5.27324 -0.0225,0 0,5.27324 -1.52112,0 0,-7.88733 2.09577,0 1.9831,5.80282 0.0225,0 1.97183,-5.80282 2.0845,0 0,7.88733 -1.52112,0" style="font-variant:normal;font-weight:700;font-stretch:normal;fill:#26a69a;fill-opacity:1;font-family:Quantico;-inkscape-font-specification:Quantico"/></g><path id="rect4381-7" d="m 67.505195,945.92306 121.636955,0 0,4 -121.636955,0 z" style="font-size:medium;font-style:normal;font-weight:400;line-height:125%;letter-spacing:0;word-spacing:0;fill:#29b6f6;fill-opacity:1;stroke:none;font-family:Sans"/><g id="text3541-0" transform="matrix(0.82742329,0,0,0.82742329,20.636757,162.6028)" style="font-size:11.4285717px;font-style:normal;font-weight:400;line-height:125%;letter-spacing:0;word-spacing:0;fill:#29b6f6;fill-opacity:1;stroke:none;font-family:Sans"><path id="path3587" d="m 49.275276,951.53263 -7.062858,0 -1.325714,-0.76571 0,-8.13715 1.325714,-0.76571 7.062858,0 1.325714,0.76571 0,6.10286 -1.325714,0.76572 -2.4,0 -0.754286,-0.46857 -0.868571,0.46857 -0.925715,0 -1.245714,-0.76572 0.445714,-4.18286 1.405715,-0.76571 0.925714,0 0.754286,0.46857 0.868571,-0.46857 0.754286,0 -0.468572,4.45714 1.348572,0 0,-5.12 -6.742858,0 0,7.15429 6.902858,0 0,1.25714 m -4.251429,-6.41143 -0.308571,3.04 1.497143,0 0.308571,-3.04 -1.497143,0" style="font-variant:normal;font-weight:700;font-stretch:normal;fill:#29b6f6;fill-opacity:1;font-family:Quantico;-inkscape-font-specification:Quantico"/></g><g id="text3092-1" transform="translate(1.0407948,-27.72807)" style="font-size:22.53521156px;font-style:normal;font-weight:400;line-height:125%;letter-spacing:0;word-spacing:0;fill:#ffca28;fill-opacity:1;stroke:none;display:inline;font-family:Sans"><path id="path3097" d="m 49.746091,1024.156 4.349296,0 0,-4.3493 3.019718,0 0,4.3493 4.349296,0 0,3.0198 -4.349296,0 0,4.3492 -3.019718,0 0,-4.3492 -4.349296,0 0,-3.0198" style="font-variant:normal;font-weight:700;font-stretch:normal;letter-spacing:-2px;word-spacing:-4px;fill:#ffca28;fill-opacity:1;font-family:Quantico;-inkscape-font-specification:Quantico"/><path id="path3099" d="m 69.631968,1018.342 0,4.5296 1.6,-0.9239 3.335211,0 2.614085,1.5098 0,6.6705 -2.614085,1.5098 -5.476056,0 -2.614085,-1.5098 0,-12.9803 2.614085,-1.5099 5.476056,0 2.614085,1.5099 0,3.2225 -3.15493,0 0,-2.0282 -4.394366,0 m 0,6.3099 0,4.2817 4.394366,0 0,-4.2817 -4.394366,0" style="font-variant:normal;font-weight:700;font-stretch:normal;letter-spacing:-2px;word-spacing:-4px;fill:#ffca28;fill-opacity:1;font-family:Quantico;-inkscape-font-specification:Quantico"/><path id="path3101" d="m 82.156616,1028.8209 7.43662,0 0,2.7042 -10.59155,0 0,-7.414 2.614085,-1.5099 4.822535,0 0,-4.1465 -4.28169,0 0,2.0282 -3.15493,0 0,-3.2225 2.614085,-1.5099 5.36338,0 2.614085,1.5099 0,6.5352 -2.614085,1.5098 -4.822535,0 0,3.5155" style="font-variant:normal;font-weight:700;font-stretch:normal;letter-spacing:-2px;word-spacing:-4px;fill:#ffca28;fill-opacity:1;font-family:Quantico;-inkscape-font-specification:Quantico"/><path id="path3105" d="m 102.67246,1028.9336 4.61972,0 0,-4.2141 -4.61972,0 0,4.2141 m 0,-6.9183 4.61972,0 0,-3.6733 -4.61972,0 0,3.6733 m 5.16057,9.6225 -6.06198,0 -2.253518,-1.5098 0,-5.6113 1.960568,-1.1268 0,-0.045 -1.960568,-1.1268 0,-5.0704 2.614088,-1.5099 5.70141,0 2.61408,1.5099 0,5.0704 -1.96056,1.1268 0,0.045 1.96056,1.1268 0,5.6113 -2.61408,1.5098" style="font-variant:normal;font-weight:700;font-stretch:normal;letter-spacing:-2px;word-spacing:-4px;fill:#ffca28;fill-opacity:1;font-family:Quantico;-inkscape-font-specification:Quantico"/><path id="path3107" d="m 117.06225,1031.5251 -3.31268,0 6.06197,-13.0253 0,-0.045 -5.07042,0 0,2.0282 -3.15493,0 0,-4.7324 11.83099,0 0,2.0282 -6.35493,13.7464" style="font-variant:normal;font-weight:700;font-stretch:normal;letter-spacing:-2px;word-spacing:-4px;fill:#ffca28;fill-opacity:1;font-family:Quantico;-inkscape-font-specification:Quantico"/><path id="path3109" d="m 127.50169,1028.9336 4.61971,0 0,-4.2141 -4.61971,0 0,4.2141 m 0,-6.9183 4.61971,0 0,-3.6733 -4.61971,0 0,3.6733 m 5.16056,9.6225 -6.06197,0 -2.25352,-1.5098 0,-5.6113 1.96056,-1.1268 0,-0.045 -1.96056,-1.1268 0,-5.0704 2.61408,-1.5099 5.70141,0 2.61408,1.5099 0,5.0704 -1.96056,1.1268 0,0.045 1.96056,1.1268 0,5.6113 -2.61408,1.5098" style="font-variant:normal;font-weight:700;font-stretch:normal;letter-spacing:-2px;word-spacing:-4px;fill:#ffca28;fill-opacity:1;font-family:Quantico;-inkscape-font-specification:Quantico"/><path id="path3113" d="m 148.32563,1028.9336 4.61972,0 0,-4.2141 -4.61972,0 0,4.2141 m 0,-6.9183 4.61972,0 0,-3.6733 -4.61972,0 0,3.6733 m 5.16056,9.6225 -6.06197,0 -2.25352,-1.5098 0,-5.6113 1.96056,-1.1268 0,-0.045 -1.96056,-1.1268 0,-5.0704 2.61408,-1.5099 5.70141,0 2.61409,1.5099 0,5.0704 -1.96057,1.1268 0,0.045 1.96057,1.1268 0,5.6113 -2.61409,1.5098" style="font-variant:normal;font-weight:700;font-stretch:normal;letter-spacing:-2px;word-spacing:-4px;fill:#ffca28;fill-opacity:1;font-family:Quantico;-inkscape-font-specification:Quantico"/><path id="path3115" d="m 169.2957,1030.128 -2.61408,1.5098 -6.15211,0 -2.61409,-1.5098 0,-12.9803 2.61409,-1.5099 6.15211,0 2.61408,1.5099 0,12.9803 m -8.22535,-11.786 0,10.5916 5.07042,0 0,-10.5916 -5.07042,0" style="font-variant:normal;font-weight:700;font-stretch:normal;letter-spacing:-2px;word-spacing:-4px;fill:#ffca28;fill-opacity:1;font-family:Quantico;-inkscape-font-specification:Quantico"/><path id="path3117" d="m 174.74993,1018.4547 0,3.0197 4.70986,0 2.61408,1.5099 0,7.1437 -2.61408,1.5098 -5.70141,0 -2.61409,-1.5098 0,-3.2226 3.15493,0 0,2.0282 4.61972,0 0,-4.7549 -7.32394,0 0,-8.4282 10.25352,0 0,2.7042 -7.09859,0" style="font-variant:normal;font-weight:700;font-stretch:normal;letter-spacing:-2px;word-spacing:-4px;fill:#ffca28;fill-opacity:1;font-family:Quantico;-inkscape-font-specification:Quantico"/><path id="path3119" d="m 187.49464,1018.4547 0,3.0197 4.70986,0 2.61409,1.5099 0,7.1437 -2.61409,1.5098 -5.70141,0 -2.61408,-1.5098 0,-3.2226 3.15493,0 0,2.0282 4.61972,0 0,-4.7549 -7.32395,0 0,-8.4282 10.25352,0 0,2.7042 -7.09859,0" style="font-variant:normal;font-weight:700;font-stretch:normal;letter-spacing:-2px;word-spacing:-4px;fill:#ffca28;fill-opacity:1;font-family:Quantico;-inkscape-font-specification:Quantico"/><path id="path3123" d="m 204.71295,1021.0237 0,-2.9521 4.05634,-2.3211 2.70423,0 0,13.0704 3.60563,0 0,2.7042 -10.3662,0 0,-2.7042 3.60564,0 0,-9.8704 -3.60564,2.0732" style="font-variant:normal;font-weight:700;font-stretch:normal;letter-spacing:-2px;word-spacing:-4px;fill:#ffca28;fill-opacity:1;font-family:Quantico;-inkscape-font-specification:Quantico"/><path id="path3125" d="m 218.94007,1018.342 0,4.5296 1.6,-0.9239 3.33521,0 2.61409,1.5098 0,6.6705 -2.61409,1.5098 -5.47605,0 -2.61409,-1.5098 0,-12.9803 2.61409,-1.5099 5.47605,0 2.61409,1.5099 0,3.2225 -3.15493,0 0,-2.0282 -4.39437,0 m 0,6.3099 0,4.2817 4.39437,0 0,-4.2817 -4.39437,0" style="font-variant:normal;font-weight:700;font-stretch:normal;letter-spacing:-2px;word-spacing:-4px;fill:#ffca28;fill-opacity:1;font-family:Quantico;-inkscape-font-specification:Quantico"/><path id="path3127" d="m 231.91542,1018.4547 0,3.0197 4.70986,0 2.61408,1.5099 0,7.1437 -2.61408,1.5098 -5.70141,0 -2.61409,-1.5098 0,-3.2226 3.15493,0 0,2.0282 4.61972,0 0,-4.7549 -7.32394,0 0,-8.4282 10.25352,0 0,2.7042 -7.09859,0" style="font-variant:normal;font-weight:700;font-stretch:normal;letter-spacing:-2px;word-spacing:-4px;fill:#ffca28;fill-opacity:1;font-family:Quantico;-inkscape-font-specification:Quantico"/><path id="path3129" d="m 252.43479,1030.128 -2.61409,1.5098 -6.15211,0 -2.61409,-1.5098 0,-12.9803 2.61409,-1.5099 6.15211,0 2.61409,1.5099 0,12.9803 m -8.22536,-11.786 0,10.5916 5.07043,0 0,-10.5916 -5.07043,0" style="font-variant:normal;font-weight:700;font-stretch:normal;letter-spacing:-2px;word-spacing:-4px;fill:#ffca28;fill-opacity:1;font-family:Quantico;-inkscape-font-specification:Quantico"/></g><text id="text3038" x="33.484" y="977.923" xml:space="preserve" style="font-size:11.4285717px;font-style:normal;font-weight:400;line-height:125%;letter-spacing:0;word-spacing:0;fill:#26a69a;fill-opacity:1;stroke:none;font-family:Sans"><tspan style="font-style:normal;font-variant:normal;font-weight:700;font-stretch:normal;fill:#26a69a;fill-opacity:1;font-family:Quantico;-inkscape-font-specification:Quantico" id="tspan3040" x="33.484" y="977.923">ME</tspan></text></g></g></svg>