<?xml version="1.0" encoding="UTF-8" standalone="no"?>
<!-- Created with Inkscape (http://www.inkscape.org/) -->

<svg
   xmlns:dc="http://purl.org/dc/elements/1.1/"
   xmlns:cc="http://creativecommons.org/ns#"
   xmlns:rdf="http://www.w3.org/1999/02/22-rdf-syntax-ns#"
   xmlns:svg="http://www.w3.org/2000/svg"
   xmlns="http://www.w3.org/2000/svg"
   xmlns:sodipodi="http://sodipodi.sourceforge.net/DTD/sodipodi-0.dtd"
   xmlns:inkscape="http://www.inkscape.org/namespaces/inkscape"
   width="100"
   height="100"
   id="svg4917"
   version="1.1"
   inkscape:version="0.48.4 r9939"
   sodipodi:docname="mhaidarhanif_x_on-blank_border-white.svg">
  <defs
     id="defs4919" />
  <sodipodi:namedview
     id="base"
     pagecolor="#ffffff"
     bordercolor="#666666"
     borderopacity="1.0"
     inkscape:pageopacity="0.0"
     inkscape:pageshadow="2"
     inkscape:zoom="0.99"
     inkscape:cx="46.976337"
     inkscape:cy="-89.616929"
     inkscape:document-units="px"
     inkscape:current-layer="layer1"
     showgrid="false"
     inkscape:showpageshadow="false"
     inkscape:window-width="1366"
     inkscape:window-height="744"
     inkscape:window-x="0"
     inkscape:window-y="24"
     inkscape:window-maximized="1" />
  <metadata
     id="metadata4922">
    <rdf:RDF>
      <cc:Work
         rdf:about="">
        <dc:format>image/svg+xml</dc:format>
        <dc:type
           rdf:resource="http://purl.org/dc/dcmitype/StillImage" />
        <dc:title />
      </cc:Work>
    </rdf:RDF>
  </metadata>
  <g
     inkscape:label="Layer 1"
     inkscape:groupmode="layer"
     id="layer1"
     transform="translate(0,-952.36218)">
    <g
       id="g3111"
       transform="translate(-23.604499,-127.75122)">
      <path
         sodipodi:nodetypes="ccccccccccccccccccccccccc"
         inkscape:connector-curvature="0"
         id="rect3902-6-28-1-5-8-8-2"
         d="m 23.604498,1080.1134 0,35 9.999996,10 0,10 -9.999996,10 0,35 34.999996,0 15,-15 0,-20 4e-6,0 0,20 15,15 35.000002,0 0,-35 -10,-10 0,-10 10,-10 0,-35 -35.000002,0 -15,15 0,15 -4e-6,0 0,-15 -15,-15 z"
         style="fill:#ffffff;fill-opacity:1;stroke:none" />
      <path
         sodipodi:nodetypes="ccccccccccccccccccccccccc"
         inkscape:connector-curvature="0"
         id="rect3902-6-28-1-5-8-0"
         d="m 33.6045,1090.1134 0,20 9.999996,10 0,20 -9.999996,10 0,20 19.999996,0 10,-10 0,-20 20,0 0,20 10,10 20.000004,0 0,-20 -10,-10 0,-20 10,-10 0,-20 -20.000004,0 -10,10 0,20 -20,0 0,-20 -10,-10 z"
         style="fill:#26c6da;fill-opacity:1;stroke:none" />
    </g>
  </g>
</svg>
