<?xml version="1.0" encoding="UTF-8" standalone="no"?>
<!-- Created with Inkscape (http://www.inkscape.org/) -->

<svg
   xmlns:dc="http://purl.org/dc/elements/1.1/"
   xmlns:cc="http://creativecommons.org/ns#"
   xmlns:rdf="http://www.w3.org/1999/02/22-rdf-syntax-ns#"
   xmlns:svg="http://www.w3.org/2000/svg"
   xmlns="http://www.w3.org/2000/svg"
   xmlns:sodipodi="http://sodipodi.sourceforge.net/DTD/sodipodi-0.dtd"
   xmlns:inkscape="http://www.inkscape.org/namespaces/inkscape"
   width="1000"
   height="100"
   id="svg4917"
   version="1.1"
   inkscape:version="0.48.4 r9939"
   sodipodi:docname="mhaidarhanif_x-name_long.svg">
  <defs
     id="defs4919" />
  <sodipodi:namedview
     id="base"
     pagecolor="#ffffff"
     bordercolor="#666666"
     borderopacity="1.0"
     inkscape:pageopacity="0.0"
     inkscape:pageshadow="2"
     inkscape:zoom="0.90780987"
     inkscape:cx="395.31202"
     inkscape:cy="50.150667"
     inkscape:document-units="px"
     inkscape:current-layer="layer1"
     showgrid="false"
     inkscape:showpageshadow="false"
     inkscape:window-width="1366"
     inkscape:window-height="744"
     inkscape:window-x="0"
     inkscape:window-y="24"
     inkscape:window-maximized="1"
     inkscape:snap-bbox="true"
     inkscape:bbox-nodes="true"
     inkscape:object-nodes="true"
     inkscape:object-paths="true"
     inkscape:snap-bbox-edge-midpoints="true"
     inkscape:snap-intersection-paths="true" />
  <metadata
     id="metadata4922">
    <rdf:RDF>
      <cc:Work
         rdf:about="">
        <dc:format>image/svg+xml</dc:format>
        <dc:type
           rdf:resource="http://purl.org/dc/dcmitype/StillImage" />
        <dc:title />
      </cc:Work>
    </rdf:RDF>
  </metadata>
  <g
     inkscape:label="all"
     inkscape:groupmode="layer"
     id="layer1"
     transform="translate(0,-952.36218)">
    <path
       style="fill:#26c6da;fill-opacity:1;stroke:none"
       d="m 10,962.36217 0,20 10,10.00001 0,20.00002 -10,10 0,20 20,0 10,-10 0,-20 20,0 0,20 10,10 20.000001,0 0,-20 -10.000001,-10 0,-20.00002 10.000001,-10.00001 0,-20 -20.000001,0 -10,10 0,20.00001 -20,0 0,-20.00001 -10,-10 z"
       id="rect3902-6-28-1-5"
       inkscape:connector-curvature="0"
       sodipodi:nodetypes="ccccccccccccccccccccccccc" />
    <g
       transform="scale(0.99984443,1.0001556)"
       style="font-size:114.26793671px;font-style:normal;font-weight:normal;line-height:100%;letter-spacing:-4px;word-spacing:-4px;fill:#37474f;fill-opacity:1;stroke:none;font-family:Sans"
       id="text2996">
      <path
         d="m 196.69753,1042.2001 0,-52.79181 -0.22854,0 -18.05433,52.79181 -15.19764,0 -18.1686,-53.47742 -0.22854,0 0,53.47742 -15.42617,0 0,-79.98758 21.25384,0 20.11116,58.84798 0.22853,0 19.99689,-58.84798 21.13957,0 0,79.98758 -15.42617,0"
         style="font-variant:normal;font-weight:bold;font-stretch:normal;line-height:100%;fill:#37474f;font-family:Quantico;-inkscape-font-specification:Quantico"
         id="path3037" />
      <path
         d="m 265.29035,1007.9197 0,34.2804 -15.99751,0 0,-79.98758 15.99751,0 0,31.99502 31.42368,0 0,-31.99502 15.99751,0 0,79.98758 -15.99751,0 0,-34.2804 -31.42368,0"
         style="font-variant:normal;font-weight:bold;font-stretch:normal;line-height:100%;fill:#37474f;font-family:Quantico;-inkscape-font-specification:Quantico"
         id="path3039" />
      <path
         d="m 365.11527,962.21252 28.56698,79.98758 -15.76897,0 -6.0562,-17.2545 -29.9382,0 -6.0562,17.2545 -15.76898,0 28.56699,-79.98758 16.45458,0 m -8.34156,20.11115 -10.05558,28.90983 20.22543,0 -9.94131,-28.90983 -0.22854,0"
         style="font-variant:normal;font-weight:bold;font-stretch:normal;line-height:100%;fill:#37474f;font-family:Quantico;-inkscape-font-specification:Quantico"
         id="path3041" />
      <path
         d="m 401.08939,1042.2001 0,-79.98758 15.99751,0 0,79.98758 -15.99751,0"
         style="font-variant:normal;font-weight:bold;font-stretch:normal;line-height:100%;fill:#37474f;font-family:Quantico;-inkscape-font-specification:Quantico"
         id="path3043" />
      <path
         d="m 494.85098,1034.5441 -13.25508,7.656 -49.02094,0 0,-79.98758 49.02094,0 13.25508,7.65595 0,64.67563 m -46.27851,-58.61943 0,52.56323 30.281,0 0,-52.56323 -30.281,0"
         style="font-variant:normal;font-weight:bold;font-stretch:normal;line-height:100%;fill:#37474f;font-family:Quantico;-inkscape-font-specification:Quantico"
         id="path3045" />
      <path
         d="m 547.28148,962.21252 28.56699,79.98758 -15.76898,0 -6.0562,-17.2545 -29.9382,0 -6.0562,17.2545 -15.76897,0 28.56698,-79.98758 16.45458,0 m -8.34155,20.11115 -10.05558,28.90983 20.22542,0 -9.94131,-28.90983 -0.22853,0"
         style="font-variant:normal;font-weight:bold;font-stretch:normal;line-height:100%;fill:#37474f;font-family:Quantico;-inkscape-font-specification:Quantico"
         id="path3047" />
      <path
         d="m 643.9319,1042.2001 -17.59727,0 -17.14019,-30.1668 -9.94131,0 0,30.1668 -15.99751,0 0,-79.98758 43.30755,0 13.25508,7.65595 0,34.50893 -13.25508,7.6559 17.36873,30.1668 m -44.67877,-66.27543 0,22.39652 24.56761,0 0,-22.39652 -24.56761,0"
         style="font-variant:normal;font-weight:bold;font-stretch:normal;line-height:100%;fill:#37474f;font-family:Quantico;-inkscape-font-specification:Quantico"
         id="path3049" />
      <path
         d="m 692.81707,1007.9197 0,34.2804 -15.99751,0 0,-79.98758 15.99751,0 0,31.99502 31.42368,0 0,-31.99502 15.99751,0 0,79.98758 -15.99751,0 0,-34.2804 -31.42368,0"
         style="font-variant:normal;font-weight:bold;font-stretch:normal;line-height:100%;fill:#37474f;font-family:Quantico;-inkscape-font-specification:Quantico"
         id="path3051" />
      <path
         d="m 792.64199,962.21252 28.56698,79.98758 -15.76897,0 -6.0562,-17.2545 -29.9382,0 -6.0562,17.2545 -15.76898,0 28.56699,-79.98758 16.45458,0 m -8.34156,20.11115 -10.05558,28.90983 20.22543,0 -9.94131,-28.90983 -0.22854,0"
         style="font-variant:normal;font-weight:bold;font-stretch:normal;line-height:100%;fill:#37474f;font-family:Quantico;-inkscape-font-specification:Quantico"
         id="path3053" />
      <path
         d="m 844.61364,990.4367 0,51.7634 -15.99751,0 0,-79.98758 14.9691,0 34.50891,51.76338 0.22854,0 0,-51.76338 15.99751,0 0,79.98758 -14.9691,0 -34.50892,-51.7634 -0.22853,0"
         style="font-variant:normal;font-weight:bold;font-stretch:normal;line-height:100%;fill:#37474f;font-family:Quantico;-inkscape-font-specification:Quantico"
         id="path3055" />
      <path
         d="m 909.64756,1042.2001 0,-79.98758 15.99751,0 0,79.98758 -15.99751,0"
         style="font-variant:normal;font-weight:bold;font-stretch:normal;line-height:100%;fill:#37474f;font-family:Quantico;-inkscape-font-specification:Quantico"
         id="path3057" />
      <path
         d="m 957.1306,1007.9197 0,34.2804 -15.99751,0 0,-79.98758 49.02095,0 0,13.71215 -33.02344,0 0,18.28287 26.16736,0 0,13.71216 -26.16736,0"
         style="font-variant:normal;font-weight:bold;font-stretch:normal;line-height:100%;fill:#37474f;font-family:Quantico;-inkscape-font-specification:Quantico"
         id="path3059" />
    </g>
  </g>
</svg>
