<svg xmlns="http://www.w3.org/2000/svg" xmlns:svg="http://www.w3.org/2000/svg" id="svg4917" width="320" height="120" version="1.1"><metadata id="metadata4922"/><g id="layer1" transform="translate(0,-932.36218)"><g id="g3020" transform="translate(4.1620422e-7,5.999995)"><path id="rect3902-6-28-1-5" d="m 20,946.36217 0,20 10,10.00001 0,20.00002 -10,10 0,20 20,0 10,-10 0,-20 20,0 0,20 10,10 20,0 0,-20 -10,-10 0,-20.00002 10,-10.00001 0,-20 -20,0 -10,10 0,20.00001 -20,0 0,-20.00001 -10,-10 z" style="fill:#26c6da;fill-opacity:1;stroke:none"/><path style="font-size:53.3250351px;font-style:normal;font-weight:400;line-height:80.00000119%;letter-spacing:-1.86666656px;word-spacing:-1.86666656px;fill:#37474f;fill-opacity:1;stroke:none;font-family:Sans" id="text2996" d="M 115.875 20 L 115.875 57.34375 L 123.3125 57.34375 L 123.3125 41.34375 L 138 41.34375 L 138 57.34375 L 145.46875 57.34375 L 145.46875 20 L 138 20 L 138 34.9375 L 123.3125 34.9375 L 123.3125 20 L 115.875 20 z M 162.21875 20 L 148.90625 57.34375 L 156.25 57.34375 L 159.09375 49.28125 L 173.0625 49.28125 L 175.875 57.34375 L 183.25 57.34375 L 169.90625 20 L 162.21875 20 z M 186.6875 20 L 186.6875 57.34375 L 194.15625 57.34375 L 194.15625 20 L 186.6875 20 z M 201.375 20 L 201.375 57.34375 L 224.25 57.34375 L 230.4375 53.75 L 230.4375 23.5625 L 224.25 20 L 201.375 20 z M 247.21875 20 L 233.90625 57.34375 L 241.25 57.34375 L 244.09375 49.28125 L 258.0625 49.28125 L 260.875 57.34375 L 268.21875 57.34375 L 254.90625 20 L 247.21875 20 z M 271.6875 20 L 271.6875 57.34375 L 279.15625 57.34375 L 279.15625 43.25 L 283.78125 43.25 L 291.78125 57.34375 L 300 57.34375 L 291.90625 43.25 L 298.09375 39.6875 L 298.09375 23.5625 L 291.90625 20 L 271.6875 20 z M 208.84375 26.40625 L 222.96875 26.40625 L 222.96875 50.9375 L 208.84375 50.9375 L 208.84375 26.40625 z M 279.15625 26.40625 L 290.625 26.40625 L 290.625 36.84375 L 279.15625 36.84375 L 279.15625 26.40625 z M 166 29.375 L 166.125 29.375 L 170.75 42.875 L 161.3125 42.875 L 166 29.375 z M 251 29.375 L 251.125 29.375 L 255.75 42.875 L 246.3125 42.875 L 251 29.375 z M 115.875 62.65625 L 115.875 100 L 123.3125 100 L 123.3125 84 L 138 84 L 138 100 L 145.46875 100 L 145.46875 62.65625 L 138 62.65625 L 138 77.59375 L 123.3125 77.59375 L 123.3125 62.65625 L 115.875 62.65625 z M 162.21875 62.65625 L 148.90625 100 L 156.25 100 L 159.09375 91.9375 L 173.0625 91.9375 L 175.875 100 L 183.25 100 L 169.90625 62.65625 L 162.21875 62.65625 z M 186.6875 62.65625 L 186.6875 100 L 194.15625 100 L 194.15625 75.84375 L 194.25 75.84375 L 210.375 100 L 217.34375 100 L 217.34375 62.65625 L 209.875 62.65625 L 209.875 86.8125 L 209.78125 86.8125 L 193.6875 62.65625 L 186.6875 62.65625 z M 224.5 62.65625 L 224.5 100 L 231.96875 100 L 231.96875 62.65625 L 224.5 62.65625 z M 239.1875 62.65625 L 239.1875 100 L 246.65625 100 L 246.65625 84 L 258.875 84 L 258.875 77.59375 L 246.65625 77.59375 L 246.65625 69.0625 L 262.0625 69.0625 L 262.0625 62.65625 L 239.1875 62.65625 z M 166 72.0625 L 166.125 72.0625 L 170.75 85.53125 L 161.3125 85.53125 L 166 72.0625 z" transform="translate(-4.1620422e-7,926.36218)"/></g></g></svg>