<svg xmlns="http://www.w3.org/2000/svg" xmlns:svg="http://www.w3.org/2000/svg" id="svg4917" width="100" height="100" version="1.1"><metadata id="metadata4922"/><g id="layer1" transform="translate(0,-952.36218)"><g id="g3111" transform="translate(-23.604499,-127.75122)"><path id="rect3902-6-28-1-5-8-8-2" d="m 23.604498,1080.1134 0,35 9.999996,10 0,10 -9.999996,10 0,35 34.999996,0 15,-15 0,-20 4e-6,0 0,20 15,15 35.000002,0 0,-35 -10,-10 0,-10 10,-10 0,-35 -35.000002,0 -15,15 0,15 -4e-6,0 0,-15 -15,-15 z" style="fill:#fff;fill-opacity:1;stroke:none"/><path id="rect3902-6-28-1-5-8-0" d="m 33.6045,1090.1134 0,20 9.999996,10 0,20 -9.999996,10 0,20 19.999996,0 10,-10 0,-20 20,0 0,20 10,10 20.000004,0 0,-20 -10,-10 0,-20 10,-10 0,-20 -20.000004,0 -10,10 0,20 -20,0 0,-20 -10,-10 z" style="fill:#26c6da;fill-opacity:1;stroke:none"/></g></g></svg>