<svg xmlns="http://www.w3.org/2000/svg" xmlns:svg="http://www.w3.org/2000/svg" id="svg4917" width="1000" height="100" version="1.1"><metadata id="metadata4922"/><g id="layer1" transform="translate(0,-952.36218)"><path style="fill:#26c6da;fill-opacity:1;stroke:none" id="rect3902-6-28-1-5" d="m 10,962.36217 0,20 10,10.00001 0,20.00002 -10,10 0,20 20,0 10,-10 0,-20 20,0 0,20 10,10 20.000001,0 0,-20 -10.000001,-10 0,-20.00002 10.000001,-10.00001 0,-20 -20.000001,0 -10,10 0,20.00001 -20,0 0,-20.00001 -10,-10 z"/><g style="font-size:114.26793671px;font-style:normal;font-weight:400;line-height:100%;letter-spacing:-4px;word-spacing:-4px;fill:#37474f;fill-opacity:1;stroke:none;font-family:Sans" id="text2996" transform="scale(0.99984443,1.0001556)"><path style="font-variant:normal;font-weight:700;font-stretch:normal;line-height:100%;fill:#37474f;font-family:Quantico;-inkscape-font-specification:Quantico" id="path3037" d="m 196.69753,1042.2001 0,-52.79181 -0.22854,0 -18.05433,52.79181 -15.19764,0 -18.1686,-53.47742 -0.22854,0 0,53.47742 -15.42617,0 0,-79.98758 21.25384,0 20.11116,58.84798 0.22853,0 19.99689,-58.84798 21.13957,0 0,79.98758 -15.42617,0"/><path style="font-variant:normal;font-weight:700;font-stretch:normal;line-height:100%;fill:#37474f;font-family:Quantico;-inkscape-font-specification:Quantico" id="path3039" d="m 265.29035,1007.9197 0,34.2804 -15.99751,0 0,-79.98758 15.99751,0 0,31.99502 31.42368,0 0,-31.99502 15.99751,0 0,79.98758 -15.99751,0 0,-34.2804 -31.42368,0"/><path style="font-variant:normal;font-weight:700;font-stretch:normal;line-height:100%;fill:#37474f;font-family:Quantico;-inkscape-font-specification:Quantico" id="path3041" d="m 365.11527,962.21252 28.56698,79.98758 -15.76897,0 -6.0562,-17.2545 -29.9382,0 -6.0562,17.2545 -15.76898,0 28.56699,-79.98758 16.45458,0 m -8.34156,20.11115 -10.05558,28.90983 20.22543,0 -9.94131,-28.90983 -0.22854,0"/><path style="font-variant:normal;font-weight:700;font-stretch:normal;line-height:100%;fill:#37474f;font-family:Quantico;-inkscape-font-specification:Quantico" id="path3043" d="m 401.08939,1042.2001 0,-79.98758 15.99751,0 0,79.98758 -15.99751,0"/><path style="font-variant:normal;font-weight:700;font-stretch:normal;line-height:100%;fill:#37474f;font-family:Quantico;-inkscape-font-specification:Quantico" id="path3045" d="m 494.85098,1034.5441 -13.25508,7.656 -49.02094,0 0,-79.98758 49.02094,0 13.25508,7.65595 0,64.67563 m -46.27851,-58.61943 0,52.56323 30.281,0 0,-52.56323 -30.281,0"/><path style="font-variant:normal;font-weight:700;font-stretch:normal;line-height:100%;fill:#37474f;font-family:Quantico;-inkscape-font-specification:Quantico" id="path3047" d="m 547.28148,962.21252 28.56699,79.98758 -15.76898,0 -6.0562,-17.2545 -29.9382,0 -6.0562,17.2545 -15.76897,0 28.56698,-79.98758 16.45458,0 m -8.34155,20.11115 -10.05558,28.90983 20.22542,0 -9.94131,-28.90983 -0.22853,0"/><path style="font-variant:normal;font-weight:700;font-stretch:normal;line-height:100%;fill:#37474f;font-family:Quantico;-inkscape-font-specification:Quantico" id="path3049" d="m 643.9319,1042.2001 -17.59727,0 -17.14019,-30.1668 -9.94131,0 0,30.1668 -15.99751,0 0,-79.98758 43.30755,0 13.25508,7.65595 0,34.50893 -13.25508,7.6559 17.36873,30.1668 m -44.67877,-66.27543 0,22.39652 24.56761,0 0,-22.39652 -24.56761,0"/><path style="font-variant:normal;font-weight:700;font-stretch:normal;line-height:100%;fill:#37474f;font-family:Quantico;-inkscape-font-specification:Quantico" id="path3051" d="m 692.81707,1007.9197 0,34.2804 -15.99751,0 0,-79.98758 15.99751,0 0,31.99502 31.42368,0 0,-31.99502 15.99751,0 0,79.98758 -15.99751,0 0,-34.2804 -31.42368,0"/><path style="font-variant:normal;font-weight:700;font-stretch:normal;line-height:100%;fill:#37474f;font-family:Quantico;-inkscape-font-specification:Quantico" id="path3053" d="m 792.64199,962.21252 28.56698,79.98758 -15.76897,0 -6.0562,-17.2545 -29.9382,0 -6.0562,17.2545 -15.76898,0 28.56699,-79.98758 16.45458,0 m -8.34156,20.11115 -10.05558,28.90983 20.22543,0 -9.94131,-28.90983 -0.22854,0"/><path style="font-variant:normal;font-weight:700;font-stretch:normal;line-height:100%;fill:#37474f;font-family:Quantico;-inkscape-font-specification:Quantico" id="path3055" d="m 844.61364,990.4367 0,51.7634 -15.99751,0 0,-79.98758 14.9691,0 34.50891,51.76338 0.22854,0 0,-51.76338 15.99751,0 0,79.98758 -14.9691,0 -34.50892,-51.7634 -0.22853,0"/><path style="font-variant:normal;font-weight:700;font-stretch:normal;line-height:100%;fill:#37474f;font-family:Quantico;-inkscape-font-specification:Quantico" id="path3057" d="m 909.64756,1042.2001 0,-79.98758 15.99751,0 0,79.98758 -15.99751,0"/><path style="font-variant:normal;font-weight:700;font-stretch:normal;line-height:100%;fill:#37474f;font-family:Quantico;-inkscape-font-specification:Quantico" id="path3059" d="m 957.1306,1007.9197 0,34.2804 -15.99751,0 0,-79.98758 49.02095,0 0,13.71215 -33.02344,0 0,18.28287 26.16736,0 0,13.71216 -26.16736,0"/></g></g></svg>