<svg xmlns="http://www.w3.org/2000/svg" xmlns:svg="http://www.w3.org/2000/svg" id="svg4917" width="980" height="340" version="1.1"><metadata id="metadata4922"/><g id="layer1" transform="translate(0,-712.3622)"><rect style="fill:#c62828;fill-opacity:1;stroke:none" id="rect3199" width="80" height="50" x="0" y="932.362"/><rect style="fill:#ad1457;fill-opacity:1;stroke:none" id="rect3199-2" width="80" height="50" x="100" y="932.362"/><rect style="fill:#d84315;fill-opacity:1;stroke:none" id="rect3199-1" width="80" height="50" x="200" y="932.362"/><rect style="fill:#ef6c00;fill-opacity:1;stroke:none" id="rect3199-2-7" width="80" height="50" x="300" y="932.362"/><rect style="fill:#ff8f00;fill-opacity:1;stroke:none" id="rect3199-14" width="80" height="50" x="400" y="932.362"/><rect style="fill:#f9a825;fill-opacity:1;stroke:none" id="rect3199-2-2" width="80" height="50" x="500" y="932.362"/><rect style="fill:#9e9d24;fill-opacity:1;stroke:none" id="rect3199-1-7" width="80" height="50" x="600" y="932.362"/><rect style="fill:#558b2f;fill-opacity:1;stroke:none" id="rect3199-2-7-4" width="80" height="50" x="700" y="932.362"/><rect style="fill:#2e7d32;fill-opacity:1;stroke:none" id="rect3199-1-7-8" width="80" height="50" x="800" y="932.362"/><rect style="fill:#00695c;fill-opacity:1;stroke:none" id="rect3199-2-7-4-3" width="80" height="50" x="900" y="932.362"/><rect style="fill:#00838f;fill-opacity:1;stroke:none" id="rect3199-4" width="80" height="50" x="0" y="1002.362"/><rect style="fill:#0277bd;fill-opacity:1;stroke:none" id="rect3199-2-0" width="80" height="50" x="100" y="1002.362"/><rect style="fill:#1565c0;fill-opacity:1;stroke:none" id="rect3199-1-8" width="80" height="50" x="200" y="1002.362"/><rect style="fill:#283593;fill-opacity:1;stroke:none" id="rect3199-2-7-7" width="80" height="50" x="300" y="1002.362"/><rect style="fill:#4527a0;fill-opacity:1;stroke:none" id="rect3199-14-3" width="80" height="50" x="400" y="1002.362"/><rect style="fill:#6a1b9a;fill-opacity:1;stroke:none" id="rect3199-2-2-0" width="80" height="50" x="500" y="1002.362"/><rect style="fill:#4e342e;fill-opacity:1;stroke:none" id="rect3199-1-7-9" width="80" height="50" x="600" y="1002.362"/><rect style="fill:#424242;fill-opacity:1;stroke:none" id="rect3199-2-7-4-7" width="80" height="50" x="700" y="1002.362"/><rect style="fill:#37474f;fill-opacity:1;stroke:none" id="rect3199-1-7-8-8" width="80" height="50" x="800" y="1002.362"/><rect style="fill:#fff;fill-opacity:1;stroke:none" id="rect3199-2-7-4-3-4" width="80" height="50" x="900" y="1002.362"/><path style="fill:#ef5350;fill-opacity:1;stroke:none" id="rect3902-6-28-1-5-3" d="m 0,712.36221 0,20 10,10 0,20 -10,10 0,20 20,0 10,-10 0,-20 20,0 0,20 10,10 20,0 0,-20 -10,-10 0,-20 10,-10 0,-20 -20,0 -10,10 0,20 -20,0 0,-20 -10,-10 z"/><path style="fill:#ec407a;fill-opacity:1;stroke:none" id="rect3902-6-28-1-5-3-1" d="m 100,712.36221 0,20 10,10 0,20 -10,10 0,20 20,0 10,-10 0,-20 20,0 0,20 10,10 20,0 0,-20 -10,-10 0,-20 10,-10 0,-20 -20,0 -10,10 0,20 -20,0 0,-20 -10,-10 z"/><path style="fill:#ffa726;fill-opacity:1;stroke:none" id="rect3902-6-28-1-5-3-1-9" d="m 300,712.36221 0,20 10,10 0,20 -10,10 0,20 20,0 10,-10 0,-20 20,0 0,20 10,10 20,0 0,-20 -10,-10 0,-20 10,-10 0,-20 -20,0 -10,10 0,20 -20,0 0,-20 -10,-10 z"/><path style="fill:#ffca28;fill-opacity:1;stroke:none" id="rect3902-6-28-1-5-3-1-9-9" d="m 400,712.36221 0,20 10,10 0,20 -10,10 0,20 20,0 10,-10 0,-20 20,0 0,20 10,10 20,0 0,-20 -10,-10 0,-20 10,-10 0,-20 -20,0 -10,10 0,20 -20,0 0,-20 -10,-10 z"/><path style="fill:#ffee58;fill-opacity:1;stroke:none" id="rect3902-6-28-1-5-3-1-9-9-1" d="m 500,712.36221 0,20 10,10 0,20 -10,10 0,20 20,0 10,-10 0,-20 20,0 0,20 10,10 20,0 0,-20 -10,-10 0,-20 10,-10 0,-20 -20,0 -10,10 0,20 -20,0 0,-20 -10,-10 z"/><path style="fill:#d4e157;fill-opacity:1;stroke:none" id="rect3902-6-28-1-5-3-1-9-2" d="m 600,712.36221 0,20 10,10 0,20 -10,10 0,20 20,0 10,-10 0,-20 20,0 0,20 10,10 20,0 0,-20 -10,-10 0,-20 10,-10 0,-20 -20,0 -10,10 0,20 -20,0 0,-20 -10,-10 z"/><path style="fill:#ff7043;fill-opacity:1;stroke:none" id="rect3902-6-28-1-5-3-1-9-9-4" d="m 200,712.36221 0,20 10,10 0,20 -10,10 0,20 20,0 10,-10 0,-20 20,0 0,20 10,10 20,0 0,-20 -10,-10 0,-20 10,-10 0,-20 -20,0 -10,10 0,20 -20,0 0,-20 -10,-10 z"/><path style="fill:#9ccc65;fill-opacity:1;stroke:none" id="rect3902-6-28-1-5-3-1-9-9-1-3" d="m 700,712.36221 0,20 10,10 0,20 -10,10 0,20 20,0 10,-10 0,-20 20,0 0,20 10,10 20,0 0,-20 -10,-10 0,-20 10,-10 0,-20 -20,0 -10,10 0,20 -20,0 0,-20 -10,-10 z"/><path style="fill:#66bb6a;fill-opacity:1;stroke:none" id="rect3902-6-28-1-5-3-1-9-2-3" d="m 800,712.36221 0,20 10,10 0,20 -10,10 0,20 20,0 10,-10 0,-20 20,0 0,20 10,10 20,0 0,-20 -10,-10 0,-20 10,-10 0,-20 -20,0 -10,10 0,20 -20,0 0,-20 -10,-10 z"/><path style="fill:#26a69a;fill-opacity:1;stroke:none" id="rect3902-6-28-1-5-3-1-9-2-3-3" d="m 900,712.36221 0,20 10,10 0,20 -10,10 0,20 20,0 10,-10 0,-20 20,0 0,20 10,10 20,0 0,-20 -10,-10 0,-20 10,-10 0,-20 -20,0 -10,10 0,20 -20,0 0,-20 -10,-10 z"/><path style="fill:#26c6da;fill-opacity:1;stroke:none" id="rect3902-6-28-1-5-3-9" d="m 0,812.36221 0,20 10,10 0,20 -10,10 0,20 20,0 10,-10 0,-20 20,0 0,20 10,10 20,0 0,-20 -10,-10 0,-20 10,-10 0,-20 -20,0 -10,10 0,20 -20,0 0,-20 -10,-10 z"/><path style="fill:#29b6f6;fill-opacity:1;stroke:none" id="rect3902-6-28-1-5-3-1-3" d="m 100,812.36221 0,20 10,10 0,20 -10,10 0,20 20,0 10,-10 0,-20 20,0 0,20 10,10 20,0 0,-20 -10,-10 0,-20 10,-10 0,-20 -20,0 -10,10 0,20 -20,0 0,-20 -10,-10 z"/><path style="fill:#5c6bc0;fill-opacity:1;stroke:none" id="rect3902-6-28-1-5-3-1-9-94" d="m 300,812.36221 0,20 10,10 0,20 -10,10 0,20 20,0 10,-10 0,-20 20,0 0,20 10,10 20,0 0,-20 -10,-10 0,-20 10,-10 0,-20 -20,0 -10,10 0,20 -20,0 0,-20 -10,-10 z"/><path style="fill:#7e57c2;fill-opacity:1;stroke:none" id="rect3902-6-28-1-5-3-1-9-9-8" d="m 400,812.36221 0,20 10,10 0,20 -10,10 0,20 20,0 10,-10 0,-20 20,0 0,20 10,10 20,0 0,-20 -10,-10 0,-20 10,-10 0,-20 -20,0 -10,10 0,20 -20,0 0,-20 -10,-10 z"/><path style="fill:#ab47bc;fill-opacity:1;stroke:none" id="rect3902-6-28-1-5-3-1-9-9-1-7" d="m 500,812.36221 0,20 10,10 0,20 -10,10 0,20 20,0 10,-10 0,-20 20,0 0,20 10,10 20,0 0,-20 -10,-10 0,-20 10,-10 0,-20 -20,0 -10,10 0,20 -20,0 0,-20 -10,-10 z"/><path style="fill:#263238;fill-opacity:1;stroke:none" id="rect3902-6-28-1-5-3-1-9-2-0" d="m 900,812.36221 0,20 10,10 0,20 -10,10 0,20 20,0 10,-10 0,-20 20,0 0,20 10,10 20,0 0,-20 -10,-10 0,-20 10,-10 0,-20 -20,0 -10,10 0,20 -20,0 0,-20 -10,-10 z"/><path style="fill:#42a5f5;fill-opacity:1;stroke:none" id="rect3902-6-28-1-5-3-1-9-9-4-6" d="m 200,812.36221 0,20 10,10 0,20 -10,10 0,20 20,0 10,-10 0,-20 20,0 0,20 10,10 20,0 0,-20 -10,-10 0,-20 10,-10 0,-20 -20,0 -10,10 0,20 -20,0 0,-20 -10,-10 z"/><path style="fill:#8d6e63;fill-opacity:1;stroke:none" id="rect3902-6-28-1-5-3-1-9-9-1-3-2" d="m 600,812.36221 0,20 10,10 0,20 -10,10 0,20 20,0 10,-10 0,-20 20,0 0,20 10,10 20,0 0,-20 -10,-10 0,-20 10,-10 0,-20 -20,0 -10,10 0,20 -20,0 0,-20 -10,-10 z"/><path style="fill:#bdbdbd;fill-opacity:1;stroke:none" id="rect3902-6-28-1-5-3-1-9-2-3-8" d="m 700,812.36221 0,20 10,10 0,20 -10,10 0,20 20,0 10,-10 0,-20 20,0 0,20 10,10 20,0 0,-20 -10,-10 0,-20 10,-10 0,-20 -20,0 -10,10 0,20 -20,0 0,-20 -10,-10 z"/><path style="fill:#78909c;fill-opacity:1;stroke:none" id="rect3902-6-28-1-5-3-1-9-2-3-3-3" d="m 800,812.36221 0,20 10,10 0,20 -10,10 0,20 20,0 10,-10 0,-20 20,0 0,20 10,10 20,0 0,-20 -10,-10 0,-20 10,-10 0,-20 -20,0 -10,10 0,20 -20,0 0,-20 -10,-10 z"/></g></svg>