<?xml version="1.0" encoding="UTF-8" standalone="no"?>
<!-- Created with Inkscape (http://www.inkscape.org/) -->

<svg
   xmlns:dc="http://purl.org/dc/elements/1.1/"
   xmlns:cc="http://creativecommons.org/ns#"
   xmlns:rdf="http://www.w3.org/1999/02/22-rdf-syntax-ns#"
   xmlns:svg="http://www.w3.org/2000/svg"
   xmlns="http://www.w3.org/2000/svg"
   xmlns:sodipodi="http://sodipodi.sourceforge.net/DTD/sodipodi-0.dtd"
   xmlns:inkscape="http://www.inkscape.org/namespaces/inkscape"
   width="980"
   height="340"
   id="svg4917"
   version="1.1"
   inkscape:version="0.48.4 r9939"
   sodipodi:docname="mhaidarhanif_x-various.svg"
   inkscape:export-filename="/home/agnium/all/repo/mhaidarh/identity/assets/color/mhaidarhanif_x.png"
   inkscape:export-xdpi="300"
   inkscape:export-ydpi="300">
  <defs
     id="defs4919" />
  <sodipodi:namedview
     id="base"
     pagecolor="#ffffff"
     bordercolor="#666666"
     borderopacity="1.0"
     inkscape:pageopacity="0.0"
     inkscape:pageshadow="2"
     inkscape:zoom="0.90780985"
     inkscape:cx="272.57066"
     inkscape:cy="16.092681"
     inkscape:document-units="px"
     inkscape:current-layer="layer1"
     showgrid="false"
     inkscape:showpageshadow="false"
     inkscape:window-width="1366"
     inkscape:window-height="744"
     inkscape:window-x="0"
     inkscape:window-y="24"
     inkscape:window-maximized="1"
     inkscape:snap-bbox="true"
     inkscape:object-paths="true"
     inkscape:object-nodes="true"
     inkscape:bbox-nodes="true"
     showguides="true"
     inkscape:guide-bbox="true"
     inkscape:snap-global="true" />
  <metadata
     id="metadata4922">
    <rdf:RDF>
      <cc:Work
         rdf:about="">
        <dc:format>image/svg+xml</dc:format>
        <dc:type
           rdf:resource="http://purl.org/dc/dcmitype/StillImage" />
        <dc:title />
      </cc:Work>
    </rdf:RDF>
  </metadata>
  <g
     inkscape:label="all"
     inkscape:groupmode="layer"
     id="layer1"
     transform="translate(0,-712.3622)">
    <rect
       style="fill:#c62828;fill-opacity:1;stroke:none"
       id="rect3199"
       width="80"
       height="50"
       x="0"
       y="932.36218" />
    <rect
       style="fill:#ad1457;fill-opacity:1;stroke:none"
       id="rect3199-2"
       width="80"
       height="50"
       x="100"
       y="932.36218" />
    <rect
       style="fill:#d84315;fill-opacity:1;stroke:none"
       id="rect3199-1"
       width="80"
       height="50"
       x="200"
       y="932.36218" />
    <rect
       style="fill:#ef6c00;fill-opacity:1;stroke:none"
       id="rect3199-2-7"
       width="80"
       height="50"
       x="300"
       y="932.36218" />
    <rect
       style="fill:#ff8f00;fill-opacity:1;stroke:none"
       id="rect3199-14"
       width="80"
       height="50"
       x="400"
       y="932.36218" />
    <rect
       style="fill:#f9a825;fill-opacity:1;stroke:none"
       id="rect3199-2-2"
       width="80"
       height="50"
       x="500"
       y="932.36218" />
    <rect
       style="fill:#9e9d24;fill-opacity:1;stroke:none"
       id="rect3199-1-7"
       width="80"
       height="50"
       x="600"
       y="932.36218" />
    <rect
       style="fill:#558b2f;fill-opacity:1;stroke:none"
       id="rect3199-2-7-4"
       width="80"
       height="50"
       x="700"
       y="932.36218" />
    <rect
       style="fill:#2e7d32;fill-opacity:1;stroke:none"
       id="rect3199-1-7-8"
       width="80"
       height="50"
       x="800"
       y="932.36218" />
    <rect
       style="fill:#00695c;fill-opacity:1;stroke:none"
       id="rect3199-2-7-4-3"
       width="80"
       height="50"
       x="900"
       y="932.36218" />
    <rect
       style="fill:#00838f;fill-opacity:1;stroke:none"
       id="rect3199-4"
       width="80"
       height="50"
       x="0"
       y="1002.3622" />
    <rect
       style="fill:#0277bd;fill-opacity:1;stroke:none"
       id="rect3199-2-0"
       width="80"
       height="50"
       x="100"
       y="1002.3622" />
    <rect
       style="fill:#1565c0;fill-opacity:1;stroke:none"
       id="rect3199-1-8"
       width="80"
       height="50"
       x="200"
       y="1002.3622" />
    <rect
       style="fill:#283593;fill-opacity:1;stroke:none"
       id="rect3199-2-7-7"
       width="80"
       height="50"
       x="300"
       y="1002.3622" />
    <rect
       style="fill:#4527a0;fill-opacity:1;stroke:none"
       id="rect3199-14-3"
       width="80"
       height="50"
       x="400"
       y="1002.3622" />
    <rect
       style="fill:#6a1b9a;fill-opacity:1;stroke:none"
       id="rect3199-2-2-0"
       width="80"
       height="50"
       x="500"
       y="1002.3622" />
    <rect
       style="fill:#4e342e;fill-opacity:1;stroke:none"
       id="rect3199-1-7-9"
       width="80"
       height="50"
       x="600"
       y="1002.3622" />
    <rect
       style="fill:#424242;fill-opacity:1;stroke:none"
       id="rect3199-2-7-4-7"
       width="80"
       height="50"
       x="700"
       y="1002.3622" />
    <rect
       style="fill:#37474f;fill-opacity:1;stroke:none"
       id="rect3199-1-7-8-8"
       width="80"
       height="50"
       x="800"
       y="1002.3622" />
    <rect
       style="fill:#ffffff;fill-opacity:1;stroke:none"
       id="rect3199-2-7-4-3-4"
       width="80"
       height="50"
       x="900"
       y="1002.3622" />
    <path
       style="fill:#ef5350;fill-opacity:1;stroke:none"
       d="m 0,712.36221 0,20 10,10 0,20 -10,10 0,20 20,0 10,-10 0,-20 20,0 0,20 10,10 20,0 0,-20 -10,-10 0,-20 10,-10 0,-20 -20,0 -10,10 0,20 -20,0 0,-20 -10,-10 z"
       id="rect3902-6-28-1-5-3"
       inkscape:connector-curvature="0"
       sodipodi:nodetypes="ccccccccccccccccccccccccc" />
    <path
       style="fill:#ec407a;fill-opacity:1;stroke:none"
       d="m 100,712.36221 0,20 10,10 0,20 -10,10 0,20 20,0 10,-10 0,-20 20,0 0,20 10,10 20,0 0,-20 -10,-10 0,-20 10,-10 0,-20 -20,0 -10,10 0,20 -20,0 0,-20 -10,-10 z"
       id="rect3902-6-28-1-5-3-1"
       inkscape:connector-curvature="0"
       sodipodi:nodetypes="ccccccccccccccccccccccccc" />
    <path
       style="fill:#ffa726;fill-opacity:1;stroke:none"
       d="m 300,712.36221 0,20 10,10 0,20 -10,10 0,20 20,0 10,-10 0,-20 20,0 0,20 10,10 20,0 0,-20 -10,-10 0,-20 10,-10 0,-20 -20,0 -10,10 0,20 -20,0 0,-20 -10,-10 z"
       id="rect3902-6-28-1-5-3-1-9"
       inkscape:connector-curvature="0"
       sodipodi:nodetypes="ccccccccccccccccccccccccc" />
    <path
       style="fill:#ffca28;fill-opacity:1;stroke:none"
       d="m 400,712.36221 0,20 10,10 0,20 -10,10 0,20 20,0 10,-10 0,-20 20,0 0,20 10,10 20,0 0,-20 -10,-10 0,-20 10,-10 0,-20 -20,0 -10,10 0,20 -20,0 0,-20 -10,-10 z"
       id="rect3902-6-28-1-5-3-1-9-9"
       inkscape:connector-curvature="0"
       sodipodi:nodetypes="ccccccccccccccccccccccccc" />
    <path
       style="fill:#ffee58;fill-opacity:1;stroke:none"
       d="m 500,712.36221 0,20 10,10 0,20 -10,10 0,20 20,0 10,-10 0,-20 20,0 0,20 10,10 20,0 0,-20 -10,-10 0,-20 10,-10 0,-20 -20,0 -10,10 0,20 -20,0 0,-20 -10,-10 z"
       id="rect3902-6-28-1-5-3-1-9-9-1"
       inkscape:connector-curvature="0"
       sodipodi:nodetypes="ccccccccccccccccccccccccc" />
    <path
       style="fill:#d4e157;fill-opacity:1;stroke:none"
       d="m 600,712.36221 0,20 10,10 0,20 -10,10 0,20 20,0 10,-10 0,-20 20,0 0,20 10,10 20,0 0,-20 -10,-10 0,-20 10,-10 0,-20 -20,0 -10,10 0,20 -20,0 0,-20 -10,-10 z"
       id="rect3902-6-28-1-5-3-1-9-2"
       inkscape:connector-curvature="0"
       sodipodi:nodetypes="ccccccccccccccccccccccccc" />
    <path
       style="fill:#ff7043;fill-opacity:1;stroke:none"
       d="m 200,712.36221 0,20 10,10 0,20 -10,10 0,20 20,0 10,-10 0,-20 20,0 0,20 10,10 20,0 0,-20 -10,-10 0,-20 10,-10 0,-20 -20,0 -10,10 0,20 -20,0 0,-20 -10,-10 z"
       id="rect3902-6-28-1-5-3-1-9-9-4"
       inkscape:connector-curvature="0"
       sodipodi:nodetypes="ccccccccccccccccccccccccc" />
    <path
       style="fill:#9ccc65;fill-opacity:1;stroke:none"
       d="m 700,712.36221 0,20 10,10 0,20 -10,10 0,20 20,0 10,-10 0,-20 20,0 0,20 10,10 20,0 0,-20 -10,-10 0,-20 10,-10 0,-20 -20,0 -10,10 0,20 -20,0 0,-20 -10,-10 z"
       id="rect3902-6-28-1-5-3-1-9-9-1-3"
       inkscape:connector-curvature="0"
       sodipodi:nodetypes="ccccccccccccccccccccccccc" />
    <path
       style="fill:#66bb6a;fill-opacity:1;stroke:none"
       d="m 800,712.36221 0,20 10,10 0,20 -10,10 0,20 20,0 10,-10 0,-20 20,0 0,20 10,10 20,0 0,-20 -10,-10 0,-20 10,-10 0,-20 -20,0 -10,10 0,20 -20,0 0,-20 -10,-10 z"
       id="rect3902-6-28-1-5-3-1-9-2-3"
       inkscape:connector-curvature="0"
       sodipodi:nodetypes="ccccccccccccccccccccccccc" />
    <path
       style="fill:#26a69a;fill-opacity:1;stroke:none"
       d="m 900,712.36221 0,20 10,10 0,20 -10,10 0,20 20,0 10,-10 0,-20 20,0 0,20 10,10 20,0 0,-20 -10,-10 0,-20 10,-10 0,-20 -20,0 -10,10 0,20 -20,0 0,-20 -10,-10 z"
       id="rect3902-6-28-1-5-3-1-9-2-3-3"
       inkscape:connector-curvature="0"
       sodipodi:nodetypes="ccccccccccccccccccccccccc" />
    <path
       style="fill:#26c6da;fill-opacity:1;stroke:none"
       d="m 0,812.36221 0,20 10,10 0,20 -10,10 0,20 20,0 10,-10 0,-20 20,0 0,20 10,10 20,0 0,-20 -10,-10 0,-20 10,-10 0,-20 -20,0 -10,10 0,20 -20,0 0,-20 -10,-10 z"
       id="rect3902-6-28-1-5-3-9"
       inkscape:connector-curvature="0"
       sodipodi:nodetypes="ccccccccccccccccccccccccc" />
    <path
       style="fill:#29b6f6;fill-opacity:1;stroke:none"
       d="m 100,812.36221 0,20 10,10 0,20 -10,10 0,20 20,0 10,-10 0,-20 20,0 0,20 10,10 20,0 0,-20 -10,-10 0,-20 10,-10 0,-20 -20,0 -10,10 0,20 -20,0 0,-20 -10,-10 z"
       id="rect3902-6-28-1-5-3-1-3"
       inkscape:connector-curvature="0"
       sodipodi:nodetypes="ccccccccccccccccccccccccc" />
    <path
       style="fill:#5c6bc0;fill-opacity:1;stroke:none"
       d="m 300,812.36221 0,20 10,10 0,20 -10,10 0,20 20,0 10,-10 0,-20 20,0 0,20 10,10 20,0 0,-20 -10,-10 0,-20 10,-10 0,-20 -20,0 -10,10 0,20 -20,0 0,-20 -10,-10 z"
       id="rect3902-6-28-1-5-3-1-9-94"
       inkscape:connector-curvature="0"
       sodipodi:nodetypes="ccccccccccccccccccccccccc" />
    <path
       style="fill:#7e57c2;fill-opacity:1;stroke:none"
       d="m 400,812.36221 0,20 10,10 0,20 -10,10 0,20 20,0 10,-10 0,-20 20,0 0,20 10,10 20,0 0,-20 -10,-10 0,-20 10,-10 0,-20 -20,0 -10,10 0,20 -20,0 0,-20 -10,-10 z"
       id="rect3902-6-28-1-5-3-1-9-9-8"
       inkscape:connector-curvature="0"
       sodipodi:nodetypes="ccccccccccccccccccccccccc" />
    <path
       style="fill:#ab47bc;fill-opacity:1;stroke:none"
       d="m 500,812.36221 0,20 10,10 0,20 -10,10 0,20 20,0 10,-10 0,-20 20,0 0,20 10,10 20,0 0,-20 -10,-10 0,-20 10,-10 0,-20 -20,0 -10,10 0,20 -20,0 0,-20 -10,-10 z"
       id="rect3902-6-28-1-5-3-1-9-9-1-7"
       inkscape:connector-curvature="0"
       sodipodi:nodetypes="ccccccccccccccccccccccccc" />
    <path
       style="fill:#263238;fill-opacity:1;stroke:none"
       d="m 900,812.36221 0,20 10,10 0,20 -10,10 0,20 20,0 10,-10 0,-20 20,0 0,20 10,10 20,0 0,-20 -10,-10 0,-20 10,-10 0,-20 -20,0 -10,10 0,20 -20,0 0,-20 -10,-10 z"
       id="rect3902-6-28-1-5-3-1-9-2-0"
       inkscape:connector-curvature="0"
       sodipodi:nodetypes="ccccccccccccccccccccccccc" />
    <path
       style="fill:#42a5f5;fill-opacity:1;stroke:none"
       d="m 200,812.36221 0,20 10,10 0,20 -10,10 0,20 20,0 10,-10 0,-20 20,0 0,20 10,10 20,0 0,-20 -10,-10 0,-20 10,-10 0,-20 -20,0 -10,10 0,20 -20,0 0,-20 -10,-10 z"
       id="rect3902-6-28-1-5-3-1-9-9-4-6"
       inkscape:connector-curvature="0"
       sodipodi:nodetypes="ccccccccccccccccccccccccc" />
    <path
       style="fill:#8d6e63;fill-opacity:1;stroke:none"
       d="m 600,812.36221 0,20 10,10 0,20 -10,10 0,20 20,0 10,-10 0,-20 20,0 0,20 10,10 20,0 0,-20 -10,-10 0,-20 10,-10 0,-20 -20,0 -10,10 0,20 -20,0 0,-20 -10,-10 z"
       id="rect3902-6-28-1-5-3-1-9-9-1-3-2"
       inkscape:connector-curvature="0"
       sodipodi:nodetypes="ccccccccccccccccccccccccc" />
    <path
       style="fill:#bdbdbd;fill-opacity:1;stroke:none"
       d="m 700,812.36221 0,20 10,10 0,20 -10,10 0,20 20,0 10,-10 0,-20 20,0 0,20 10,10 20,0 0,-20 -10,-10 0,-20 10,-10 0,-20 -20,0 -10,10 0,20 -20,0 0,-20 -10,-10 z"
       id="rect3902-6-28-1-5-3-1-9-2-3-8"
       inkscape:connector-curvature="0"
       sodipodi:nodetypes="ccccccccccccccccccccccccc" />
    <path
       style="fill:#78909c;fill-opacity:1;stroke:none"
       d="m 800,812.36221 0,20 10,10 0,20 -10,10 0,20 20,0 10,-10 0,-20 20,0 0,20 10,10 20,0 0,-20 -10,-10 0,-20 10,-10 0,-20 -20,0 -10,10 0,20 -20,0 0,-20 -10,-10 z"
       id="rect3902-6-28-1-5-3-1-9-2-3-3-3"
       inkscape:connector-curvature="0"
       sodipodi:nodetypes="ccccccccccccccccccccccccc" />
  </g>
</svg>
